<svg width="23" height="11" viewBox="0 0 23 11" fill="none" xmlns="http://www.w3.org/2000/svg">
<path d="M15.898 3.50292H0.813989C0.654859 3.50292 0.502247 3.56614 0.389725 3.67866C0.277203 3.79118 0.213989 3.9438 0.213989 4.10293L0.213989 6.90292C0.213989 6.98172 0.229509 7.05974 0.259662 7.13253C0.289814 7.20533 0.33401 7.27147 0.389725 7.32719C0.44544 7.3829 0.511584 7.4271 0.584379 7.45725C0.657175 7.48741 0.735196 7.50292 0.813989 7.50292H15.898V9.80293C15.8984 10.0399 15.969 10.2715 16.1008 10.4684C16.2326 10.6653 16.4198 10.8188 16.6387 10.9095C16.8577 11.0002 17.0985 11.024 17.331 10.978C17.5635 10.932 17.7771 10.8182 17.945 10.6509L22.245 6.35092C22.3569 6.23944 22.4456 6.10697 22.5062 5.96111C22.5668 5.81525 22.5979 5.65886 22.5979 5.50093C22.5979 5.34299 22.5668 5.1866 22.5062 5.04074C22.4456 4.89488 22.3569 4.76241 22.245 4.65093L17.945 0.350925C17.7771 0.183657 17.5635 0.0698383 17.331 0.0238199C17.0985 -0.0221985 16.8577 0.00164382 16.6387 0.0923414C16.4198 0.183039 16.2326 0.33653 16.1008 0.533462C15.969 0.730393 15.8984 0.961946 15.898 1.19893V3.50292Z" fill="white"/>
</svg>
