<svg width="23" height="11" viewBox="0 0 23 11" fill="none" xmlns="http://www.w3.org/2000/svg">
<path d="M15.875 3.503H0.790979C0.631849 3.503 0.479237 3.56622 0.366715 3.67874C0.254193 3.79126 0.190979 3.94387 0.190979 4.103L0.190979 6.903C0.190979 6.98179 0.206498 7.05982 0.236651 7.13261C0.266804 7.20541 0.311 7.27155 0.366715 7.32727C0.42243 7.38298 0.488574 7.42718 0.561369 7.45733C0.634164 7.48748 0.712186 7.503 0.790979 7.503H15.875V9.803C15.8754 10.04 15.9459 10.2715 16.0778 10.4685C16.2096 10.6654 16.3968 10.8189 16.6157 10.9096C16.8346 11.0003 17.0755 11.0241 17.308 10.9781C17.5405 10.9321 17.7541 10.8183 17.922 10.651L22.222 6.351C22.3339 6.23952 22.4226 6.10705 22.4832 5.96118C22.5437 5.81532 22.5749 5.65894 22.5749 5.501C22.5749 5.34306 22.5437 5.18668 22.4832 5.04082C22.4226 4.89496 22.3339 4.76249 22.222 4.651L17.922 0.351002C17.7541 0.183734 17.5405 0.0699146 17.308 0.0238962C17.0755 -0.0221222 16.8346 0.00172012 16.6157 0.0924177C16.3968 0.183115 16.2096 0.336607 16.0778 0.533538C15.9459 0.730469 15.8754 0.962022 15.875 1.199V3.503Z" fill="#06C167"/>
</svg>
