<svg width="23" height="11" viewBox="0 0 23 11" fill="none" xmlns="http://www.w3.org/2000/svg">
<path d="M15.898 3.50305H0.813989C0.654859 3.50305 0.502247 3.56626 0.389725 3.67878C0.277203 3.79131 0.213989 3.94392 0.213989 4.10305L0.213989 6.90305C0.213989 6.98184 0.229509 7.05986 0.259662 7.13266C0.289814 7.20545 0.33401 7.2716 0.389725 7.32731C0.44544 7.38303 0.511584 7.42722 0.584379 7.45738C0.657175 7.48753 0.735196 7.50305 0.813989 7.50305H15.898V9.80305C15.8984 10.04 15.969 10.2716 16.1008 10.4685C16.2326 10.6654 16.4198 10.8189 16.6387 10.9096C16.8577 11.0003 17.0985 11.0242 17.331 10.9782C17.5635 10.9321 17.7771 10.8183 17.945 10.651L22.245 6.35105C22.3569 6.23956 22.4456 6.10709 22.5062 5.96123C22.5668 5.81537 22.5979 5.65898 22.5979 5.50105C22.5979 5.34311 22.5668 5.18673 22.5062 5.04086C22.4456 4.895 22.3569 4.76253 22.245 4.65105L17.945 0.351047C17.7771 0.183779 17.5635 0.0699603 17.331 0.023942C17.0985 -0.0220764 16.8577 0.00176589 16.6387 0.0924635C16.4198 0.183161 16.2326 0.336652 16.1008 0.533584C15.969 0.730515 15.8984 0.962068 15.898 1.19905V3.50305Z" fill="white"/>
</svg>
