<svg width="200" height="68" viewBox="0 0 200 68" fill="none" xmlns="http://www.w3.org/2000/svg">
<path d="M200 0H0V68H200V0Z" fill="#06C167"/>
<path d="M40.1727 31C40.0477 30.6174 39.8829 30.2746 39.6783 29.9716C39.4776 29.6648 39.2371 29.4034 38.9567 29.1875C38.6802 28.9716 38.3658 28.8068 38.0136 28.6932C37.6613 28.5795 37.2749 28.5227 36.8545 28.5227C36.1651 28.5227 35.5382 28.7008 34.9738 29.0568C34.4094 29.4129 33.9605 29.9375 33.6272 30.6307C33.2939 31.3239 33.1272 32.1742 33.1272 33.1818C33.1272 34.1894 33.2958 35.0398 33.6329 35.733C33.97 36.4261 34.4264 36.9508 35.0022 37.3068C35.578 37.6629 36.2257 37.8409 36.9454 37.8409C37.6121 37.8409 38.1992 37.6989 38.7067 37.4148C39.2181 37.1269 39.6158 36.7216 39.8999 36.1989C40.1878 35.6723 40.3317 35.053 40.3317 34.3409L40.7636 34.4318H37.2636V33.1818H41.6954V34.4318C41.6954 35.3902 41.4908 36.2235 41.0817 36.9318C40.6764 37.6402 40.1158 38.1894 39.3999 38.5795C38.6878 38.9659 37.8696 39.1591 36.9454 39.1591C35.9151 39.1591 35.0098 38.9167 34.2295 38.4318C33.453 37.947 32.8469 37.2576 32.4113 36.3636C31.9795 35.4697 31.7636 34.4091 31.7636 33.1818C31.7636 32.2614 31.8867 31.4337 32.1329 30.6989C32.3829 29.9602 32.7352 29.3314 33.1897 28.8125C33.6442 28.2936 34.1821 27.8958 34.8033 27.6193C35.4246 27.3428 36.1083 27.2045 36.8545 27.2045C37.4681 27.2045 38.0401 27.2973 38.5704 27.483C39.1045 27.6648 39.5799 27.9242 39.9965 28.2614C40.417 28.5947 40.7674 28.9943 41.0477 29.4602C41.328 29.9223 41.5211 30.4356 41.6272 31H40.1727ZM47.586 39.1818C46.7451 39.1818 46.0197 38.9962 45.4099 38.625C44.8038 38.25 44.336 37.7273 44.0065 37.0568C43.6807 36.3826 43.5178 35.5985 43.5178 34.7045C43.5178 33.8106 43.6807 33.0227 44.0065 32.3409C44.336 31.6553 44.7943 31.1212 45.3815 30.7386C45.9724 30.3523 46.6618 30.1591 47.4496 30.1591C47.9042 30.1591 48.3531 30.2348 48.7962 30.3864C49.2394 30.5379 49.6428 30.7841 50.0065 31.125C50.3701 31.4621 50.6599 31.9091 50.8758 32.4659C51.0917 33.0227 51.1996 33.7083 51.1996 34.5227V35.0909H44.4724V33.9318H49.836C49.836 33.4394 49.7375 33 49.5406 32.6136C49.3474 32.2273 49.0709 31.9223 48.711 31.6989C48.3549 31.4754 47.9345 31.3636 47.4496 31.3636C46.9156 31.3636 46.4534 31.4962 46.0633 31.7614C45.6769 32.0227 45.3796 32.3636 45.1712 32.7841C44.9629 33.2045 44.8587 33.6553 44.8587 34.1364V34.9091C44.8587 35.5682 44.9724 36.1269 45.1996 36.5852C45.4307 37.0398 45.7508 37.3864 46.1599 37.625C46.569 37.8598 47.0443 37.9773 47.586 37.9773C47.9383 37.9773 48.2565 37.928 48.5406 37.8295C48.8284 37.7273 49.0765 37.5758 49.2849 37.375C49.4932 37.1705 49.6542 36.9167 49.7678 36.6136L51.0633 36.9773C50.9269 37.4167 50.6978 37.803 50.3758 38.1364C50.0538 38.4659 49.6561 38.7235 49.1826 38.9091C48.7091 39.0909 48.1769 39.1818 47.586 39.1818ZM57.0349 30.2727V31.4091H52.5121V30.2727H57.0349ZM53.8303 28.1818H55.1712V36.5C55.1712 36.8788 55.2262 37.1629 55.336 37.3523C55.4496 37.5379 55.5936 37.6629 55.7678 37.7273C55.9459 37.7879 56.1334 37.8182 56.3303 37.8182C56.4781 37.8182 56.5993 37.8106 56.694 37.7955C56.7887 37.7765 56.8644 37.7614 56.9212 37.75L57.194 38.9545C57.1031 38.9886 56.9762 39.0227 56.8133 39.0568C56.6504 39.0947 56.444 39.1136 56.194 39.1136C55.8152 39.1136 55.444 39.0322 55.0803 38.8693C54.7205 38.7064 54.4212 38.4583 54.1826 38.125C53.9478 37.7917 53.8303 37.3712 53.8303 36.8636V28.1818ZM70.0974 30.2727C70.0292 29.697 69.7527 29.25 69.2678 28.9318C68.783 28.6136 68.1883 28.4545 67.4837 28.4545C66.9686 28.4545 66.5178 28.5379 66.1315 28.7045C65.7489 28.8712 65.4496 29.1004 65.2337 29.392C65.0216 29.6837 64.9156 30.0152 64.9156 30.3864C64.9156 30.697 64.9894 30.964 65.1371 31.1875C65.2887 31.4072 65.4818 31.5909 65.7167 31.7386C65.9515 31.8826 66.1978 32.0019 66.4553 32.0966C66.7129 32.1875 66.9496 32.2614 67.1656 32.3182L68.3474 32.6364C68.6504 32.7159 68.9875 32.8258 69.3587 32.9659C69.7337 33.1061 70.0917 33.2973 70.4326 33.5398C70.7773 33.7784 71.0614 34.0852 71.2849 34.4602C71.5084 34.8352 71.6201 35.2955 71.6201 35.8409C71.6201 36.4697 71.4553 37.0379 71.1258 37.5455C70.8 38.053 70.3228 38.4564 69.694 38.7557C69.069 39.0549 68.3095 39.2045 67.4156 39.2045C66.5822 39.2045 65.8606 39.0701 65.2508 38.8011C64.6447 38.5322 64.1674 38.1572 63.819 37.6761C63.4743 37.1951 63.2792 36.6364 63.2337 36H64.6883C64.7262 36.4394 64.8739 36.803 65.1315 37.0909C65.3928 37.375 65.7224 37.5871 66.1201 37.7273C66.5216 37.8636 66.9534 37.9318 67.4156 37.9318C67.9534 37.9318 68.4364 37.8447 68.8644 37.6705C69.2924 37.4924 69.6315 37.2462 69.8815 36.9318C70.1315 36.6136 70.2565 36.2424 70.2565 35.8182C70.2565 35.4318 70.1485 35.1174 69.9326 34.875C69.7167 34.6326 69.4326 34.4356 69.0803 34.2841C68.7281 34.1326 68.3474 34 67.9383 33.8864L66.5065 33.4773C65.5974 33.2159 64.8777 32.8428 64.3474 32.358C63.8171 31.8731 63.5519 31.2386 63.5519 30.4545C63.5519 29.803 63.7281 29.2348 64.0803 28.75C64.4364 28.2614 64.9137 27.8826 65.5121 27.6136C66.1144 27.3409 66.7868 27.2045 67.5292 27.2045C68.2792 27.2045 68.9459 27.339 69.5292 27.608C70.1125 27.8731 70.5746 28.2367 70.9156 28.6989C71.2603 29.161 71.4421 29.6856 71.461 30.2727H70.0974ZM77.5505 30.2727V31.4091H73.0278V30.2727H77.5505ZM74.346 28.1818H75.6869V36.5C75.6869 36.8788 75.7418 37.1629 75.8516 37.3523C75.9653 37.5379 76.1092 37.6629 76.2835 37.7273C76.4615 37.7879 76.649 37.8182 76.846 37.8182C76.9937 37.8182 77.1149 37.8106 77.2096 37.7955C77.3043 37.7765 77.38 37.7614 77.4369 37.75L77.7096 38.9545C77.6187 38.9886 77.4918 39.0227 77.3289 39.0568C77.166 39.0947 76.9596 39.1136 76.7096 39.1136C76.3308 39.1136 75.9596 39.0322 75.596 38.8693C75.2361 38.7064 74.9369 38.4583 74.6982 38.125C74.4634 37.7917 74.346 37.3712 74.346 36.8636V28.1818ZM82.1357 39.2045C81.5827 39.2045 81.0808 39.1004 80.63 38.892C80.1793 38.6799 79.8213 38.375 79.5562 37.9773C79.291 37.5758 79.1585 37.0909 79.1585 36.5227C79.1585 36.0227 79.2569 35.6174 79.4539 35.3068C79.6509 34.9924 79.9141 34.7462 80.2437 34.5682C80.5732 34.3902 80.9369 34.2576 81.3346 34.1705C81.7361 34.0795 82.1395 34.0076 82.5448 33.9545C83.0751 33.8864 83.505 33.8352 83.8346 33.8011C84.1679 33.7633 84.4103 33.7008 84.5619 33.6136C84.7172 33.5265 84.7948 33.375 84.7948 33.1591V33.1136C84.7948 32.553 84.6414 32.1174 84.3346 31.8068C84.0316 31.4962 83.5713 31.3409 82.9539 31.3409C82.3138 31.3409 81.8119 31.4811 81.4482 31.7614C81.0846 32.0417 80.8289 32.3409 80.6812 32.6591L79.4085 32.2045C79.6357 31.6742 79.9388 31.2614 80.3175 30.9659C80.7001 30.6667 81.1168 30.4583 81.5675 30.3409C82.0221 30.2197 82.4691 30.1591 82.9085 30.1591C83.1888 30.1591 83.5107 30.1932 83.8744 30.2614C84.2418 30.3258 84.596 30.4602 84.9369 30.6648C85.2816 30.8693 85.5675 31.178 85.7948 31.5909C86.0221 32.0038 86.1357 32.5568 86.1357 33.25V39H84.7948V37.8182H84.7266C84.6357 38.0076 84.4842 38.2102 84.2721 38.4261C84.06 38.642 83.7778 38.8258 83.4255 38.9773C83.0732 39.1288 82.6433 39.2045 82.1357 39.2045ZM82.3403 38C82.8706 38 83.3175 37.8958 83.6812 37.6875C84.0486 37.4792 84.3251 37.2102 84.5107 36.8807C84.7001 36.5511 84.7948 36.2045 84.7948 35.8409V34.6136C84.738 34.6818 84.613 34.7443 84.4198 34.8011C84.2304 34.8542 84.0107 34.9015 83.7607 34.9432C83.5145 34.9811 83.274 35.0152 83.0391 35.0455C82.8081 35.072 82.6206 35.0947 82.4766 35.1136C82.1281 35.1591 81.8024 35.233 81.4994 35.3352C81.2001 35.4337 80.9577 35.5833 80.7721 35.7841C80.5903 35.9811 80.4994 36.25 80.4994 36.5909C80.4994 37.0568 80.6717 37.4091 81.0164 37.6477C81.3649 37.8826 81.8062 38 82.3403 38ZM88.5832 39V30.2727H89.8786V31.5909H89.9695C90.1286 31.1591 90.4165 30.8087 90.8332 30.5398C91.2498 30.2708 91.7195 30.1364 92.2423 30.1364C92.3407 30.1364 92.4639 30.1383 92.6116 30.142C92.7593 30.1458 92.871 30.1515 92.9468 30.1591V31.5227C92.9014 31.5114 92.7972 31.4943 92.6343 31.4716C92.4752 31.4451 92.3067 31.4318 92.1286 31.4318C91.7044 31.4318 91.3256 31.5208 90.9923 31.6989C90.6627 31.8731 90.4014 32.1155 90.2082 32.4261C90.0188 32.733 89.9241 33.0833 89.9241 33.4773V39H88.5832ZM98.8786 30.2727V31.4091H94.3559V30.2727H98.8786ZM95.6741 28.1818H97.015V36.5C97.015 36.8788 97.0699 37.1629 97.1798 37.3523C97.2934 37.5379 97.4373 37.6629 97.6116 37.7273C97.7896 37.7879 97.9771 37.8182 98.1741 37.8182C98.3218 37.8182 98.443 37.8106 98.5377 37.7955C98.6324 37.7765 98.7082 37.7614 98.765 37.75L99.0377 38.9545C98.9468 38.9886 98.8199 39.0227 98.657 39.0568C98.4942 39.0947 98.2877 39.1136 98.0377 39.1136C97.6589 39.1136 97.2877 39.0322 96.9241 38.8693C96.5642 38.7064 96.265 38.4583 96.0264 38.125C95.7915 37.7917 95.6741 37.3712 95.6741 36.8636V28.1818ZM104.461 39.1818C103.62 39.1818 102.895 38.9962 102.285 38.625C101.679 38.25 101.211 37.7273 100.881 37.0568C100.556 36.3826 100.393 35.5985 100.393 34.7045C100.393 33.8106 100.556 33.0227 100.881 32.3409C101.211 31.6553 101.669 31.1212 102.256 30.7386C102.847 30.3523 103.537 30.1591 104.325 30.1591C104.779 30.1591 105.228 30.2348 105.671 30.3864C106.114 30.5379 106.518 30.7841 106.881 31.125C107.245 31.4621 107.535 31.9091 107.751 32.4659C107.967 33.0227 108.075 33.7083 108.075 34.5227V35.0909H101.347V33.9318H106.711C106.711 33.4394 106.613 33 106.416 32.6136C106.222 32.2273 105.946 31.9223 105.586 31.6989C105.23 31.4754 104.809 31.3636 104.325 31.3636C103.791 31.3636 103.328 31.4962 102.938 31.7614C102.552 32.0227 102.255 32.3636 102.046 32.7841C101.838 33.2045 101.734 33.6553 101.734 34.1364V34.9091C101.734 35.5682 101.847 36.1269 102.075 36.5852C102.306 37.0398 102.626 37.3864 103.035 37.625C103.444 37.8598 103.919 37.9773 104.461 37.9773C104.813 37.9773 105.131 37.928 105.416 37.8295C105.703 37.7273 105.952 37.5758 106.16 37.375C106.368 37.1705 106.529 36.9167 106.643 36.6136L107.938 36.9773C107.802 37.4167 107.573 37.803 107.251 38.1364C106.929 38.4659 106.531 38.7235 106.058 38.9091C105.584 39.0909 105.052 39.1818 104.461 39.1818ZM113.41 39.1818C112.683 39.1818 112.041 38.9981 111.484 38.6307C110.927 38.2595 110.491 37.7367 110.177 37.0625C109.863 36.3845 109.705 35.5833 109.705 34.6591C109.705 33.7424 109.863 32.947 110.177 32.2727C110.491 31.5985 110.929 31.0777 111.489 30.7102C112.05 30.3428 112.698 30.1591 113.433 30.1591C114.001 30.1591 114.45 30.2538 114.779 30.4432C115.113 30.6288 115.366 30.8409 115.541 31.0795C115.719 31.3144 115.857 31.5076 115.955 31.6591H116.069V27.3636H117.41V39H116.114V37.6591H115.955C115.857 37.8182 115.717 38.0189 115.535 38.2614C115.353 38.5 115.094 38.714 114.756 38.9034C114.419 39.089 113.97 39.1818 113.41 39.1818ZM113.592 37.9773C114.13 37.9773 114.584 37.8371 114.955 37.5568C115.327 37.2727 115.609 36.8807 115.802 36.3807C115.995 35.8769 116.092 35.2955 116.092 34.6364C116.092 33.9848 115.997 33.4148 115.808 32.9261C115.618 32.4337 115.338 32.0511 114.967 31.7784C114.595 31.5019 114.137 31.3636 113.592 31.3636C113.024 31.3636 112.55 31.5095 112.171 31.8011C111.796 32.089 111.514 32.4811 111.325 32.9773C111.139 33.4697 111.046 34.0227 111.046 34.6364C111.046 35.2576 111.141 35.822 111.33 36.3295C111.524 36.8333 111.808 37.2348 112.183 37.5341C112.561 37.8295 113.031 37.9773 113.592 37.9773Z" fill="white"/>
<path d="M163.303 32.5019H148.219C148.06 32.5019 147.907 32.5652 147.795 32.6777C147.682 32.7902 147.619 32.9428 147.619 33.1019V35.9019C147.619 35.9807 147.635 36.0588 147.665 36.1316C147.695 36.2044 147.739 36.2705 147.795 36.3262C147.85 36.3819 147.917 36.4261 147.989 36.4563C148.062 36.4864 148.14 36.5019 148.219 36.5019H163.303V38.8019C163.303 39.0389 163.374 39.2705 163.506 39.4674C163.638 39.6643 163.825 39.8178 164.044 39.9085C164.263 39.9992 164.504 40.0231 164.736 39.9771C164.969 39.931 165.182 39.8172 165.35 39.6499L169.65 35.3499C169.762 35.2385 169.851 35.106 169.911 34.9601C169.972 34.8143 170.003 34.6579 170.003 34.4999C170.003 34.342 169.972 34.1856 169.911 34.0398C169.851 33.8939 169.762 33.7614 169.65 33.6499L165.35 29.3499C165.182 29.1827 164.969 29.0689 164.736 29.0228C164.504 28.9768 164.263 29.0007 164.044 29.0914C163.825 29.1821 163.638 29.3356 163.506 29.5325C163.374 29.7294 163.303 29.961 163.303 30.1979V32.5019Z" fill="white"/>
</svg>
