<svg width="100" height="15" viewBox="0 0 100 15" fill="none" xmlns="http://www.w3.org/2000/svg">
<path d="M7.18199 0.506749L5.32299 4.27775L1.16299 4.88475C0.995159 4.91014 0.837738 4.98186 0.708448 5.09185C0.579158 5.20184 0.48313 5.34572 0.431169 5.50732C0.379209 5.66892 0.373379 5.84181 0.414335 6.00654C0.455291 6.17127 0.541408 6.3213 0.662995 6.43975L3.67299 9.37275L2.96099 13.5157C2.93245 13.6832 2.95126 13.8552 3.01531 14.0125C3.07936 14.1698 3.1861 14.306 3.32347 14.4058C3.46085 14.5057 3.62339 14.5651 3.79276 14.5775C3.96214 14.5898 4.13159 14.5546 4.28199 14.4757L8.00399 12.5197L11.726 14.4757C11.8764 14.5546 12.0459 14.5898 12.2152 14.5775C12.3846 14.5651 12.5471 14.5057 12.6845 14.4058C12.8219 14.306 12.9286 14.1698 12.9927 14.0125C13.0567 13.8552 13.0755 13.6832 13.047 13.5157L12.331 9.37175L15.341 6.43875C15.4626 6.3203 15.5487 6.17027 15.5897 6.00554C15.6306 5.84081 15.6248 5.66792 15.5728 5.50632C15.5209 5.34472 15.4248 5.20084 15.2955 5.09085C15.1663 4.98086 15.0088 4.90914 14.841 4.88375L10.681 4.27675L8.817 0.506749C8.74162 0.35432 8.62512 0.226002 8.48066 0.136284C8.33621 0.0465665 8.16954 -0.000976563 7.9995 -0.000976562C7.82945 -0.000976563 7.66278 0.0465665 7.51833 0.136284C7.37387 0.226002 7.25737 0.35432 7.18199 0.506749Z" fill="#06C167"/>
<path d="M28.182 0.506749L26.323 4.27775L22.163 4.88475C21.9952 4.91014 21.8377 4.98186 21.7084 5.09185C21.5792 5.20184 21.4831 5.34572 21.4312 5.50732C21.3792 5.66892 21.3734 5.84181 21.4143 6.00654C21.4553 6.17127 21.5414 6.3213 21.663 6.43975L24.673 9.37275L23.961 13.5157C23.9324 13.6832 23.9513 13.8552 24.0153 14.0125C24.0794 14.1698 24.1861 14.306 24.3235 14.4058C24.4608 14.5057 24.6234 14.5651 24.7928 14.5775C24.9621 14.5898 25.1316 14.5546 25.282 14.4757L29.004 12.5197L32.726 14.4757C32.8764 14.5546 33.0459 14.5898 33.2152 14.5775C33.3846 14.5651 33.5471 14.5057 33.6845 14.4058C33.8219 14.306 33.9286 14.1698 33.9927 14.0125C34.0567 13.8552 34.0755 13.6832 34.047 13.5157L33.331 9.37175L36.341 6.43875C36.4626 6.3203 36.5487 6.17027 36.5897 6.00554C36.6306 5.84081 36.6248 5.66792 36.5728 5.50632C36.5209 5.34472 36.4248 5.20084 36.2955 5.09085C36.1663 4.98086 36.0088 4.90914 35.841 4.88375L31.681 4.27675L29.817 0.506749C29.7416 0.35432 29.6251 0.226002 29.4807 0.136284C29.3362 0.0465665 29.1695 -0.000976563 28.9995 -0.000976562C28.8294 -0.000976563 28.6628 0.0465665 28.5183 0.136284C28.3739 0.226002 28.2574 0.35432 28.182 0.506749Z" fill="#06C167"/>
<path d="M49.182 0.506749L47.323 4.27775L43.163 4.88475C42.9952 4.91014 42.8377 4.98186 42.7084 5.09185C42.5792 5.20184 42.4831 5.34572 42.4312 5.50732C42.3792 5.66892 42.3734 5.84181 42.4143 6.00654C42.4553 6.17127 42.5414 6.3213 42.663 6.43975L45.673 9.37275L44.961 13.5157C44.9324 13.6832 44.9513 13.8552 45.0153 14.0125C45.0794 14.1698 45.1861 14.306 45.3235 14.4058C45.4608 14.5057 45.6234 14.5651 45.7928 14.5775C45.9621 14.5898 46.1316 14.5546 46.282 14.4757L50.004 12.5197L53.726 14.4757C53.8764 14.5546 54.0459 14.5898 54.2152 14.5775C54.3846 14.5651 54.5471 14.5057 54.6845 14.4058C54.8219 14.306 54.9286 14.1698 54.9927 14.0125C55.0567 13.8552 55.0755 13.6832 55.047 13.5157L54.331 9.37175L57.341 6.43875C57.4626 6.3203 57.5487 6.17027 57.5897 6.00554C57.6306 5.84081 57.6248 5.66792 57.5728 5.50632C57.5209 5.34472 57.4248 5.20084 57.2955 5.09085C57.1663 4.98086 57.0088 4.90914 56.841 4.88375L52.681 4.27675L50.817 0.506749C50.7416 0.35432 50.6251 0.226002 50.4807 0.136284C50.3362 0.0465665 50.1695 -0.000976563 49.9995 -0.000976562C49.8294 -0.000976563 49.6628 0.0465665 49.5183 0.136284C49.3739 0.226002 49.2574 0.35432 49.182 0.506749Z" fill="#06C167"/>
<path d="M70.182 0.506749L68.323 4.27775L64.163 4.88475C63.9952 4.91014 63.8377 4.98186 63.7084 5.09185C63.5792 5.20184 63.4831 5.34572 63.4312 5.50732C63.3792 5.66892 63.3734 5.84181 63.4143 6.00654C63.4553 6.17127 63.5414 6.3213 63.663 6.43975L66.673 9.37275L65.961 13.5157C65.9324 13.6832 65.9513 13.8552 66.0153 14.0125C66.0794 14.1698 66.1861 14.306 66.3235 14.4058C66.4608 14.5057 66.6234 14.5651 66.7928 14.5775C66.9621 14.5898 67.1316 14.5546 67.282 14.4757L71.004 12.5197L74.726 14.4757C74.8764 14.5546 75.0459 14.5898 75.2152 14.5775C75.3846 14.5651 75.5471 14.5057 75.6845 14.4058C75.8219 14.306 75.9286 14.1698 75.9927 14.0125C76.0567 13.8552 76.0755 13.6832 76.047 13.5157L75.331 9.37175L78.341 6.43875C78.4626 6.3203 78.5487 6.17027 78.5897 6.00554C78.6306 5.84081 78.6248 5.66792 78.5728 5.50632C78.5209 5.34472 78.4248 5.20084 78.2955 5.09085C78.1663 4.98086 78.0088 4.90914 77.841 4.88375L73.681 4.27675L71.817 0.506749C71.7416 0.35432 71.6251 0.226002 71.4807 0.136284C71.3362 0.0465665 71.1695 -0.000976563 70.9995 -0.000976562C70.8294 -0.000976563 70.6628 0.0465665 70.5183 0.136284C70.3739 0.226002 70.2574 0.35432 70.182 0.506749Z" fill="#06C167"/>
<path d="M91.182 0.506749L89.323 4.27775L85.163 4.88475C84.9952 4.91014 84.8377 4.98186 84.7084 5.09185C84.5792 5.20184 84.4831 5.34572 84.4312 5.50732C84.3792 5.66892 84.3734 5.84181 84.4143 6.00654C84.4553 6.17127 84.5414 6.3213 84.663 6.43975L87.673 9.37275L86.961 13.5157C86.9324 13.6832 86.9513 13.8552 87.0153 14.0125C87.0794 14.1698 87.1861 14.306 87.3235 14.4058C87.4608 14.5057 87.6234 14.5651 87.7928 14.5775C87.9621 14.5898 88.1316 14.5546 88.282 14.4757L92.004 12.5197L95.726 14.4757C95.8764 14.5546 96.0459 14.5898 96.2152 14.5775C96.3846 14.5651 96.5471 14.5057 96.6845 14.4058C96.8219 14.306 96.9286 14.1698 96.9927 14.0125C97.0567 13.8552 97.0755 13.6832 97.047 13.5157L96.331 9.37175L99.341 6.43875C99.4626 6.3203 99.5487 6.17027 99.5897 6.00554C99.6306 5.84081 99.6248 5.66792 99.5728 5.50632C99.5209 5.34472 99.4248 5.20084 99.2955 5.09085C99.1663 4.98086 99.0088 4.90914 98.841 4.88375L94.681 4.27675L92.817 0.506749C92.7416 0.35432 92.6251 0.226002 92.4807 0.136284C92.3362 0.0465665 92.1695 -0.000976563 91.9995 -0.000976562C91.8294 -0.000976563 91.6628 0.0465665 91.5183 0.136284C91.3739 0.226002 91.2574 0.35432 91.182 0.506749Z" fill="#06C167"/>
</svg>
