<?xml version="1.0" encoding="UTF-8"?>
<!DOCTYPE svg PUBLIC "-//W3C//DTD SVG 1.1//EN" "http://www.w3.org/Graphics/SVG/1.1/DTD/svg11.dtd">
<svg xmlns="http://www.w3.org/2000/svg" version="1.1" width="140px" height="140px" style="shape-rendering:geometricPrecision; text-rendering:geometricPrecision; image-rendering:optimizeQuality; fill-rule:evenodd; clip-rule:evenodd" xmlns:xlink="http://www.w3.org/1999/xlink">
<g><path style="opacity:0.999" fill="#f2fbf6" d="M 13.5,-0.5 C 50.8333,-0.5 88.1667,-0.5 125.5,-0.5C 132.167,2.16667 136.833,6.83333 139.5,13.5C 139.5,50.8333 139.5,88.1667 139.5,125.5C 136.833,132.167 132.167,136.833 125.5,139.5C 88.1667,139.5 50.8333,139.5 13.5,139.5C 6.83333,136.833 2.16667,132.167 -0.5,125.5C -0.5,88.1667 -0.5,50.8333 -0.5,13.5C 2.16667,6.83333 6.83333,2.16667 13.5,-0.5 Z"/></g>
<g><path style="opacity:1" fill="#13c269" d="M 76.5,88.5 C 76.5,87.5 76.5,86.5 76.5,85.5C 71.8333,85.5 67.1667,85.5 62.5,85.5C 62.5,86.5 62.5,87.5 62.5,88.5C 59.2733,94.9661 54.2733,96.7994 47.5,94C 44.9221,91.7724 43.5887,88.9391 43.5,85.5C 40.632,85.915 38.4653,84.915 37,82.5C 36.3333,70.5 36.3333,58.5 37,46.5C 37.8333,45.6667 38.6667,44.8333 39.5,44C 51.8333,43.3333 64.1667,43.3333 76.5,44C 77.6667,44.5 78.5,45.3333 79,46.5C 79.4966,48.8098 79.6633,51.1432 79.5,53.5C 81.8568,53.3367 84.1902,53.5034 86.5,54C 90.3333,57.8333 94.1667,61.6667 98,65.5C 98.4992,70.1548 98.6658,74.8215 98.5,79.5C 99.8333,79.5 101.167,79.5 102.5,79.5C 103.265,84.9064 100.931,86.9064 95.5,85.5C 94.0418,94.3864 89.0418,97.2198 80.5,94C 78.5359,92.549 77.2026,90.7157 76.5,88.5 Z"/></g>
<g><path style="opacity:1" fill="#f0fbf5" d="M 79.5,58.5 C 81.1992,58.3398 82.8659,58.5065 84.5,59C 87.6828,62.0155 90.6828,65.1822 93.5,68.5C 88.8804,69.4933 84.2137,69.8266 79.5,69.5C 79.5,65.8333 79.5,62.1667 79.5,58.5 Z"/></g>
<g><path style="opacity:1" fill="#e7f9ef" d="M 51.5,80.5 C 56.3306,80.4936 58.4973,82.827 58,87.5C 54.8184,91.4236 51.8184,91.4236 49,87.5C 48.3333,86.1667 48.3333,84.8333 49,83.5C 50.045,82.6266 50.8783,81.6266 51.5,80.5 Z"/></g>
<g><path style="opacity:1" fill="#e6f8ef" d="M 84.5,80.5 C 89.7722,81.2635 91.4389,84.0968 89.5,89C 85.3097,91.5363 82.3097,90.5363 80.5,86C 81.0074,83.4547 82.3407,81.6214 84.5,80.5 Z"/></g>
<g><path style="opacity:1" fill="#ace9cb" d="M 76.5,88.5 C 71.8333,85.8333 67.1667,85.8333 62.5,88.5C 62.5,87.5 62.5,86.5 62.5,85.5C 67.1667,85.5 71.8333,85.5 76.5,85.5C 76.5,86.5 76.5,87.5 76.5,88.5 Z"/></g>
</svg>
