<svg width="18" height="19" viewBox="0 0 18 19" fill="none" xmlns="http://www.w3.org/2000/svg">
<path d="M8.923 4.99123C8.01835 4.99123 7.13401 5.25949 6.38182 5.76208C5.62963 6.26468 5.04337 6.97904 4.69718 7.81483C4.35098 8.65062 4.2604 9.5703 4.43689 10.4576C4.61338 11.3448 5.04901 12.1598 5.68869 12.7995C6.32838 13.4392 7.14339 13.8749 8.03066 14.0513C8.91793 14.2278 9.8376 14.1372 10.6734 13.7911C11.5092 13.4449 12.2235 12.8586 12.7261 12.1064C13.2287 11.3542 13.497 10.4699 13.497 9.56523C13.4981 8.96426 13.3805 8.369 13.151 7.81359C12.9215 7.25817 12.5846 6.75352 12.1597 6.32857C11.7347 5.90362 11.2301 5.56675 10.6746 5.33726C10.1192 5.10776 9.52396 4.99017 8.923 4.99123ZM8.923 12.5382C8.335 12.5382 7.7602 12.3639 7.27129 12.0372C6.78238 11.7105 6.40133 11.2462 6.17631 10.7029C5.95129 10.1597 5.89241 9.56193 6.00713 8.98522C6.12184 8.40852 6.40499 7.87878 6.82077 7.463C7.23655 7.04722 7.76629 6.76407 8.343 6.64935C8.9197 6.53464 9.51747 6.59351 10.0607 6.81853C10.604 7.04355 11.0683 7.42461 11.395 7.91352C11.7216 8.40242 11.896 8.97722 11.896 9.56523C11.8944 10.3532 11.5807 11.1085 11.0235 11.6657C10.4663 12.2229 9.711 12.5366 8.923 12.5382ZM14.75 4.80423C14.75 5.01526 14.6874 5.22155 14.5702 5.39702C14.4529 5.57249 14.2863 5.70925 14.0913 5.79001C13.8964 5.87077 13.6818 5.8919 13.4748 5.85073C13.2679 5.80956 13.0777 5.70793 12.9285 5.55871C12.7793 5.40949 12.6777 5.21937 12.6365 5.01239C12.5953 4.80541 12.6165 4.59087 12.6972 4.3959C12.778 4.20093 12.9147 4.03429 13.0902 3.91705C13.2657 3.7998 13.472 3.73723 13.683 3.73723C13.8233 3.7367 13.9623 3.76393 14.0921 3.81735C14.2218 3.87077 14.3397 3.94933 14.439 4.04851C14.5383 4.14768 14.6169 4.26551 14.6705 4.3952C14.724 4.5249 14.7514 4.66391 14.751 4.80423H14.75ZM17.775 5.88623C17.8045 4.49929 17.2868 3.15649 16.334 2.14823C15.3237 1.19863 13.9823 0.681511 12.596 0.707226C11.123 0.623226 6.709 0.623226 5.236 0.707226C3.85013 0.679578 2.50847 1.19536 1.498 2.14423C0.549305 3.15466 0.034171 4.49653 0.063 5.88223C-0.021 7.35523 -0.021 11.7692 0.063 13.2422C0.0335268 14.6292 0.551177 15.972 1.504 16.9802C2.51461 17.9286 3.85534 18.4452 5.241 18.4202C6.714 18.5042 11.128 18.5042 12.601 18.4202C13.9879 18.4497 15.3307 17.9321 16.339 16.9792C17.2865 15.9684 17.8018 14.6275 17.775 13.2422C17.863 11.7692 17.863 7.35923 17.775 5.88623ZM15.875 14.8202C15.7237 15.2052 15.4946 15.5548 15.2021 15.8473C14.9096 16.1398 14.56 16.3689 14.175 16.5202C13.001 16.9862 10.214 16.8782 8.917 16.8782C7.62 16.8782 4.829 16.9782 3.659 16.5202C3.27403 16.3689 2.9244 16.1398 2.6319 15.8473C2.33941 15.5548 2.11034 15.2052 1.959 14.8202C1.493 13.6462 1.601 10.8592 1.601 9.56223C1.601 8.26523 1.501 5.47423 1.959 4.30423C2.11034 3.91926 2.33941 3.56962 2.6319 3.27713C2.9244 2.98464 3.27403 2.75557 3.659 2.60423C4.833 2.13823 7.62 2.24623 8.917 2.24623C10.214 2.24623 13.005 2.14623 14.175 2.60423C14.56 2.75557 14.9096 2.98464 15.2021 3.27713C15.4946 3.56962 15.7237 3.91926 15.875 4.30423C16.341 5.47823 16.233 8.26523 16.233 9.56223C16.233 10.8592 16.343 13.6522 15.875 14.8202Z" fill="#1D1D1F"/>
</svg>
