<svg width="35" height="35" viewBox="0 0 35 35" fill="none" xmlns="http://www.w3.org/2000/svg">
<path opacity="0.55" d="M33.297 11.026C32.6569 9.562 31.8096 8.1977 30.781 6.97495C29.2617 5.11111 27.3647 3.59035 25.2149 2.51287C23.0652 1.43538 20.7115 0.825626 18.309 0.723773C15.9065 0.621919 13.5097 1.03028 11.2765 1.92195C9.04329 2.81362 7.02435 4.16836 5.35269 5.89692C3.68104 7.62548 2.39462 9.68863 1.57818 11.9504C0.761739 14.2122 0.433813 16.6214 0.616005 19.0191C0.798197 21.4169 1.48637 23.7488 2.63519 25.8613C3.78401 27.9737 5.3674 29.8188 7.28104 31.275C8.50785 32.2277 9.86328 33.002 11.307 33.575C13.3312 34.4044 15.4975 34.8317 17.685 34.833C22.1995 34.8229 26.5259 33.0238 29.7163 29.8298C32.9067 26.6358 34.701 22.3074 34.706 17.793C34.7093 15.4638 34.2296 13.1593 33.297 11.025V11.026ZM17.672 4.19295C19.6366 4.19339 21.5772 4.62343 23.358 5.45295C22.9236 5.64065 22.4669 5.77172 21.999 5.84295C20.4605 6.06603 19.0352 6.78051 17.9359 7.87982C16.8366 8.97914 16.1221 10.4044 15.899 11.943C15.8013 12.8061 15.4088 13.6092 14.7878 14.2165C14.1667 14.8239 13.3552 15.1985 12.49 15.277C10.9515 15.5 9.52623 16.2145 8.42691 17.3138C7.3276 18.4131 6.61312 19.8384 6.39004 21.377C6.31457 22.1977 5.96434 22.969 5.39604 23.566C4.41541 21.4943 3.97482 19.2081 4.11527 16.9204C4.25573 14.6326 4.97266 12.4176 6.19934 10.4814C7.42603 8.54518 9.1226 6.95078 11.1312 5.84657C13.1397 4.74236 15.395 4.16422 17.687 4.16595L17.672 4.19295ZM7.26804 26.601C7.41904 26.463 7.56804 26.337 7.72104 26.186C8.84016 25.101 9.55856 23.6687 9.75904 22.123C9.84003 21.2539 10.2279 20.4421 10.853 19.833C11.4547 19.2067 12.2645 18.8219 13.13 18.751C14.6686 18.5279 16.0939 17.8134 17.1932 16.7141C18.2925 15.6148 19.007 14.1895 19.23 12.651C19.285 11.7431 19.6748 10.8879 20.324 10.251C20.94 9.63742 21.7567 9.26673 22.624 9.20695C24.0413 9.01259 25.3631 8.38212 26.406 7.40295C27.5922 8.3876 28.597 9.57211 29.375 10.903C29.3271 10.9675 29.2721 11.0265 29.211 11.079C28.6106 11.7107 27.8018 12.1039 26.934 12.186C25.3938 12.405 23.9664 13.1182 22.8663 14.2182C21.7663 15.3183 21.0531 16.7457 20.834 18.286C20.7453 19.1519 20.3599 19.9606 19.7432 20.5749C19.1265 21.1893 18.3163 21.5715 17.45 21.657C15.9067 21.878 14.4758 22.5909 13.3698 23.6898C12.2639 24.7887 11.5419 26.215 11.311 27.757C11.2434 28.3716 11.0324 28.9617 10.695 29.48C9.40424 28.7136 8.24816 27.7403 7.27304 26.599L7.26804 26.601ZM17.668 31.457C16.3915 31.4584 15.1211 31.2807 13.894 30.929C14.3138 30.1465 14.5866 29.2937 14.699 28.413C14.7873 27.549 15.1708 26.7419 15.7849 26.1278C16.399 25.5137 17.2061 25.1302 18.07 25.042C19.6112 24.8218 21.0397 24.1086 22.1418 23.009C23.2439 21.9095 23.9604 20.4826 24.184 18.942C24.2723 18.078 24.6558 17.2709 25.2699 16.6568C25.884 16.0427 26.6911 15.6592 27.555 15.571C28.7151 15.4202 29.8208 14.9883 30.776 14.313C31.3055 16.3225 31.3678 18.4266 30.9582 20.464C30.5486 22.5014 29.678 24.418 28.413 26.0668C27.148 27.7156 25.5223 29.0528 23.6605 29.9761C21.7987 30.8993 19.7502 31.384 17.672 31.393L17.668 31.457Z" fill="#394149"/>
</svg>
