<svg width="36" height="30" viewBox="0 0 36 30" fill="none" xmlns="http://www.w3.org/2000/svg">
<path opacity="0.55" d="M1.37904 13.1308C2.30716 9.40044 4.45664 6.08782 7.48525 3.72041C10.5138 1.35299 14.2474 0.0668945 18.0915 0.0668945C21.9356 0.0668945 25.6692 1.35299 28.6978 3.72041C31.7264 6.08782 33.8759 9.40044 34.804 13.1308H33.294C30.7481 13.0937 28.2545 13.8546 26.163 15.3068C26.0424 15.3942 25.9165 15.474 25.786 15.5458H25.61C25.4795 15.474 25.3536 15.3942 25.233 15.3068C23.1226 13.8878 20.6372 13.1298 18.094 13.1298C15.5509 13.1298 13.0654 13.8878 10.955 15.3068C10.8344 15.3942 10.7085 15.474 10.578 15.5458H10.402C10.2715 15.474 10.1456 15.3942 10.025 15.3068C7.93304 13.8542 5.43863 13.0932 2.89204 13.1308H1.37904ZM30.579 21.0188C31.354 20.4155 32.3143 20.0998 33.296 20.1258H35.321V16.0868H33.295C31.5656 16.0661 29.8757 16.6045 28.477 17.6218C27.6899 18.2022 26.7376 18.5154 25.7595 18.5154C24.7815 18.5154 23.8292 18.2022 23.042 17.6218C21.6078 16.6233 19.9021 16.088 18.1545 16.088C16.4069 16.088 14.7013 16.6233 13.267 17.6218C12.4799 18.2022 11.5276 18.5154 10.5495 18.5154C9.57152 18.5154 8.6192 18.2022 7.83204 17.6218C6.41607 16.5913 4.70193 16.0523 2.95104 16.0868H0.863037V20.1248H2.88804C3.86979 20.0988 4.83012 20.4145 5.60504 21.0178C7.03663 22.0169 8.74031 22.5526 10.486 22.5526C12.2318 22.5526 13.9354 22.0169 15.367 21.0178C16.1429 20.4163 17.1026 20.1009 18.084 20.1248C19.0661 20.0967 20.0272 20.4125 20.801 21.0178C22.2353 22.0163 23.9409 22.5516 25.6885 22.5516C27.4361 22.5516 29.1418 22.0163 30.576 21.0178L30.579 21.0188ZM30.579 28.2398C31.354 27.6365 32.3143 27.3208 33.296 27.3468H35.321V23.3078H33.295C31.5656 23.2871 29.8757 23.8254 28.477 24.8428C27.6899 25.4232 26.7376 25.7364 25.7595 25.7364C24.7815 25.7364 23.8292 25.4232 23.042 24.8428C21.6077 23.8444 19.9021 23.3092 18.1545 23.3092C16.407 23.3092 14.7013 23.8444 13.267 24.8428C12.4799 25.4232 11.5276 25.7364 10.5495 25.7364C9.57152 25.7364 8.6192 25.4232 7.83204 24.8428C6.41604 23.8124 4.70192 23.2733 2.95104 23.3078H0.863037V27.3468H2.88804C3.86979 27.3208 4.83012 27.6365 5.60504 28.2398C7.03663 29.2389 8.74031 29.7746 10.486 29.7746C12.2318 29.7746 13.9354 29.2389 15.367 28.2398C16.1429 27.6383 17.1026 27.3229 18.084 27.3468C19.0661 27.3186 20.0272 27.6345 20.801 28.2398C22.2353 29.2383 23.9409 29.7736 25.6885 29.7736C27.4361 29.7736 29.1418 29.2383 30.576 28.2398H30.579Z" fill="#394149"/>
</svg>
