<svg width="149" height="30" viewBox="0 0 149 30" fill="none" xmlns="http://www.w3.org/2000/svg">
<g opacity="0.55">
<path opacity="0.55" d="M48.4541 24.2268C47.7065 24.2684 46.9668 24.057 46.3541 23.6268C46.098 23.4372 45.892 23.188 45.7538 22.9009C45.6156 22.6137 45.5495 22.2973 45.5611 21.9788V10.3128C45.5549 10.2634 45.5601 10.2133 45.5762 10.1662C45.5924 10.1191 45.6191 10.0763 45.6543 10.0411C45.6895 10.0059 45.7323 9.97918 45.7794 9.96302C45.8265 9.94686 45.8766 9.94166 45.9261 9.94783H48.0391C48.2781 9.94783 48.3911 10.0738 48.3911 10.3128V21.0688C48.3911 21.5468 48.6051 21.7858 49.0451 21.7858C49.2319 21.7936 49.4188 21.7723 49.5991 21.7228C49.8511 21.7228 49.9891 21.7978 49.9991 22.0228L50.1901 23.5928C50.1991 23.6385 50.1983 23.6856 50.1877 23.731C50.1771 23.7764 50.1569 23.8189 50.1285 23.8559C50.1001 23.8928 50.0641 23.9232 50.023 23.9451C49.9819 23.967 49.9366 23.9799 49.8901 23.9828C49.4268 24.1377 48.9424 24.22 48.4541 24.2268Z" fill="#394149"/>
<path opacity="0.55" d="M60.342 22.8808C59.2801 23.7583 57.9456 24.2383 56.568 24.2383C55.1905 24.2383 53.856 23.7583 52.794 22.8808C51.8605 21.9385 51.3368 20.6657 51.3368 19.3393C51.3368 18.0129 51.8605 16.7401 52.794 15.7978C53.858 14.9249 55.1918 14.4478 56.568 14.4478C57.9443 14.4478 59.278 14.9249 60.342 15.7978C61.254 16.7487 61.7632 18.0153 61.7632 19.3328C61.7632 20.6504 61.254 21.9169 60.342 22.8678V22.8808ZM54.782 21.2168C55.275 21.6637 55.9166 21.9113 56.582 21.9113C57.2475 21.9113 57.8891 21.6637 58.382 21.2168C58.8285 20.7039 59.0743 20.0468 59.0743 19.3668C59.0743 18.6868 58.8285 18.0298 58.382 17.5168C57.8891 17.0699 57.2475 16.8224 56.582 16.8224C55.9166 16.8224 55.275 17.0699 54.782 17.5168C54.3356 18.0298 54.0898 18.6868 54.0898 19.3668C54.0898 20.0468 54.3356 20.7039 54.782 21.2168Z" fill="#394149"/>
<path opacity="0.55" d="M73.4 14.7668C73.639 14.7668 73.752 14.8928 73.752 15.1318V24.1518C73.7736 24.7609 73.6592 25.3671 73.417 25.9263C73.1748 26.4856 72.811 26.9838 72.352 27.3848C71.3348 28.2522 70.0266 28.7018 68.691 28.6428C67.4848 28.685 66.2947 28.3555 65.282 27.6988C64.8495 27.4148 64.4801 27.0449 64.1966 26.6121C63.9131 26.1792 63.7216 25.6927 63.634 25.1828C63.634 24.9308 63.634 24.8178 63.974 24.8178H66.087C66.1767 24.8209 66.2635 24.8498 66.3372 24.9011C66.4108 24.9524 66.468 25.0238 66.502 25.1068C66.639 25.4887 66.9122 25.8067 67.269 25.9998C67.7042 26.2244 68.1885 26.3368 68.678 26.3268C68.9735 26.3429 69.2691 26.3001 69.5478 26.2006C69.8265 26.1012 70.0825 25.9473 70.301 25.7478C70.5007 25.5391 70.656 25.2921 70.7576 25.0218C70.8591 24.7514 70.9049 24.4633 70.892 24.1748V23.3818C70.1353 23.9386 69.2142 24.2265 68.275 24.1998C67.6178 24.2238 66.9625 24.1148 66.3485 23.8792C65.7345 23.6436 65.1745 23.2863 64.702 22.8288C63.7949 21.8905 63.2878 20.6364 63.2878 19.3313C63.2878 18.0262 63.7949 16.7721 64.702 15.8338C65.1768 15.3803 65.7375 15.0264 66.3511 14.793C66.9648 14.5596 67.6189 14.4514 68.275 14.4748C69.2413 14.4492 70.1872 14.7555 70.955 15.3428V15.1428C70.9492 15.0946 70.9542 15.0457 70.9697 14.9997C70.9851 14.9536 71.0106 14.9116 71.0443 14.8767C71.078 14.8417 71.1191 14.8147 71.1645 14.7976C71.21 14.7805 71.2587 14.7737 71.307 14.7778L73.4 14.7668ZM68.519 21.9668C68.843 21.9768 69.1653 21.9155 69.463 21.7873C69.7607 21.6591 70.0267 21.4671 70.242 21.2248C70.6603 20.6847 70.8872 20.0209 70.8872 19.3378C70.8872 18.6547 70.6603 17.9909 70.242 17.4508C70.0275 17.2115 69.7631 17.0222 69.4675 16.8961C69.1719 16.7699 68.8522 16.7101 68.531 16.7208C68.2032 16.7105 67.877 16.7714 67.575 16.8996C67.273 17.0277 67.0024 17.2198 66.782 17.4628C66.3188 17.9795 66.0753 18.6564 66.103 19.3498C66.0803 20.0352 66.3175 20.7039 66.767 21.2218C66.9879 21.4641 67.2586 21.6559 67.5605 21.7839C67.8623 21.912 68.1883 21.9733 68.516 21.9638L68.519 21.9668Z" fill="#394149"/>
<path opacity="0.55" d="M84.609 22.8799C83.545 23.7529 82.2113 24.23 80.835 24.23C79.4587 24.23 78.125 23.7529 77.061 22.8799C76.1482 21.9269 75.6386 20.6581 75.6386 19.3384C75.6386 18.0187 76.1482 16.75 77.061 15.7969C78.1261 14.9263 79.4594 14.4507 80.835 14.4507C82.2106 14.4507 83.544 14.9263 84.609 15.7969C85.521 16.7478 86.0302 18.0144 86.0302 19.3319C86.0302 20.6495 85.521 21.916 84.609 22.8669V22.8799ZM79.036 21.2169C79.5261 21.6741 80.1713 21.9283 80.8415 21.9283C81.5117 21.9283 82.1569 21.6741 82.647 21.2169C83.0861 20.7005 83.3272 20.0448 83.3272 19.3669C83.3272 18.6891 83.0861 18.0334 82.647 17.5169C82.1569 17.0598 81.5117 16.8056 80.8415 16.8056C80.1713 16.8056 79.5261 17.0598 79.036 17.5169C78.5969 18.0334 78.3559 18.6891 78.3559 19.3669C78.3559 20.0448 78.5969 20.7005 79.036 21.2169Z" fill="#394149"/>
<path opacity="0.55" d="M90.571 12.6278C90.2387 12.9182 89.8123 13.0782 89.371 13.0782C88.9297 13.0782 88.5034 12.9182 88.171 12.6278C88.0202 12.4856 87.9001 12.314 87.818 12.1236C87.7359 11.9333 87.6935 11.7282 87.6935 11.5208C87.6935 11.3135 87.7359 11.1084 87.818 10.9181C87.9001 10.7277 88.0202 10.5561 88.171 10.4138C88.5068 10.1308 88.9318 9.97559 89.371 9.97559C89.8102 9.97559 90.2352 10.1308 90.571 10.4138C90.7218 10.5561 90.8419 10.7277 90.924 10.9181C91.0061 11.1084 91.0485 11.3135 91.0485 11.5208C91.0485 11.7282 91.0061 11.9333 90.924 12.1236C90.8419 12.314 90.7218 12.4856 90.571 12.6278ZM90.835 24.2278C90.0879 24.2655 89.3494 24.0545 88.735 23.6278C88.483 23.4353 88.2806 23.1852 88.1449 22.8985C88.0093 22.6118 87.9441 22.2968 87.955 21.9798V15.1308C87.9488 15.0814 87.954 15.0313 87.9702 14.9842C87.9864 14.9371 88.0131 14.8943 88.0483 14.8591C88.0835 14.8239 88.1263 14.7972 88.1733 14.781C88.2204 14.7649 88.2706 14.7597 88.32 14.7658H90.433C90.672 14.7658 90.785 14.8918 90.785 15.1308V21.0688C90.785 21.5468 90.999 21.7858 91.427 21.7858C91.6177 21.7927 91.8085 21.7715 91.993 21.7228C92.245 21.7228 92.383 21.7978 92.393 22.0228L92.582 23.5958C92.5911 23.6415 92.5903 23.6886 92.5797 23.734C92.569 23.7794 92.5489 23.8219 92.5205 23.8589C92.492 23.8958 92.4561 23.9262 92.415 23.9481C92.3738 23.97 92.3285 23.9829 92.282 23.9858C91.8153 24.1403 91.3276 24.2216 90.836 24.2268L90.835 24.2278Z" fill="#394149"/>
<path opacity="0.55" d="M100.36 14.4648C101.021 14.4384 101.68 14.5452 102.298 14.7786C102.917 15.0121 103.482 15.3675 103.96 15.8238C104.85 16.7785 105.344 18.0349 105.344 19.3398C105.344 20.6447 104.85 21.901 103.96 22.8558C103.484 23.316 102.919 23.6747 102.301 23.9104C101.682 24.146 101.022 24.2537 100.36 24.2268C99.418 24.2476 98.495 23.9604 97.7311 23.4088V27.9498C97.7311 28.1888 97.6051 28.3018 97.3661 28.3018H95.2521C95.2038 28.3112 95.154 28.3087 95.1069 28.2943C95.0599 28.28 95.0171 28.2543 94.9823 28.2195C94.9476 28.1847 94.9219 28.1419 94.9075 28.0949C94.8932 28.0479 94.8906 27.998 94.9001 27.9498V17.6348C94.9149 17.5339 94.9059 17.431 94.8738 17.3342C94.8418 17.2374 94.7875 17.1495 94.7154 17.0774C94.6433 17.0053 94.5554 16.9511 94.4586 16.919C94.3619 16.887 94.2589 16.878 94.1581 16.8928H93.7431C93.4664 16.8928 93.3281 16.7928 93.3281 16.5928V15.1058C93.3211 15.0139 93.346 14.9224 93.3987 14.8468C93.4513 14.7712 93.5285 14.7161 93.6171 14.6908C94.0524 14.5328 94.513 14.4562 94.9761 14.4648C95.437 14.4236 95.8998 14.5209 96.3052 14.7441C96.7106 14.9673 97.0403 15.3063 97.2521 15.7178C97.6573 15.3079 98.1418 14.985 98.676 14.7687C99.2102 14.5524 99.7829 14.4473 100.359 14.4598L100.36 14.4648ZM98.3971 21.2178C98.6212 21.4525 98.8906 21.6394 99.1889 21.7671C99.4873 21.8948 99.8085 21.9606 100.133 21.9606C100.458 21.9606 100.779 21.8948 101.077 21.7671C101.376 21.6394 101.645 21.4525 101.869 21.2178C102.342 20.6908 102.59 20.0001 102.561 19.2928C102.594 18.5849 102.345 17.8927 101.869 17.3678C101.645 17.133 101.376 16.9462 101.077 16.8185C100.779 16.6908 100.458 16.625 100.133 16.625C99.8085 16.625 99.4873 16.6908 99.1889 16.8185C98.8906 16.9462 98.6212 17.133 98.3971 17.3678C97.9392 17.902 97.7009 18.5898 97.7301 19.2928C97.7046 19.9952 97.9424 20.6818 98.3971 21.2178Z" fill="#394149"/>
<path opacity="0.55" d="M111.279 24.2271C110.15 24.2735 109.03 24.0033 108.046 23.4471C107.651 23.2093 107.315 22.8856 107.062 22.5C106.81 22.1145 106.647 21.677 106.587 21.2201C106.587 20.9681 106.675 20.8431 106.952 20.8431H108.801C108.889 20.8466 108.974 20.8743 109.048 20.9231C109.121 20.972 109.179 21.0402 109.216 21.1201C109.48 21.7991 110.172 22.1391 111.279 22.1391C111.665 22.157 112.05 22.0793 112.399 21.9131C112.519 21.8588 112.623 21.7729 112.698 21.6644C112.774 21.5559 112.818 21.4289 112.827 21.2971C112.827 20.9701 112.627 20.7431 112.227 20.5971C111.75 20.438 111.256 20.3323 110.755 20.2821C110.162 20.2147 109.574 20.1095 108.994 19.9671C108.43 19.8395 107.917 19.5459 107.522 19.1241C107.289 18.8375 107.118 18.506 107.018 18.1503C106.919 17.7946 106.894 17.4223 106.945 17.0565C106.995 16.6907 107.121 16.3392 107.313 16.024C107.506 15.7088 107.761 15.4365 108.063 15.2241C108.97 14.6466 110.033 14.3653 111.107 14.4191C112.147 14.3839 113.175 14.6409 114.076 15.1611C114.439 15.3667 114.752 15.6507 114.991 15.9923C115.23 16.334 115.391 16.7247 115.46 17.1361C115.46 17.3874 115.347 17.5131 115.12 17.5131H113.254C113.176 17.5177 113.098 17.4986 113.031 17.4583C112.963 17.4179 112.91 17.3583 112.877 17.2871C112.753 16.9891 112.519 16.7502 112.223 16.6201C111.89 16.4455 111.517 16.3588 111.141 16.3681C110.772 16.3482 110.405 16.4218 110.072 16.5821C109.955 16.6277 109.855 16.7072 109.783 16.8104C109.712 16.9136 109.673 17.0357 109.672 17.1611C109.68 17.3326 109.742 17.4971 109.85 17.6306C109.958 17.7641 110.106 17.8595 110.272 17.9031C110.756 18.0853 111.259 18.2118 111.772 18.2801C112.36 18.3575 112.944 18.4667 113.521 18.6071C114.085 18.7348 114.598 19.0284 114.993 19.4501C115.204 19.6824 115.368 19.9542 115.473 20.25C115.579 20.5457 115.625 20.8594 115.609 21.1731C115.62 21.608 115.518 22.0382 115.313 22.4219C115.108 22.8056 114.807 23.1295 114.439 23.3621C113.498 23.9647 112.396 24.2665 111.279 24.2271Z" fill="#394149"/>
<path opacity="0.55" d="M128.904 23.5981C128.911 23.6427 128.91 23.6882 128.899 23.7321C128.888 23.7762 128.868 23.8177 128.841 23.8541C128.814 23.8906 128.78 23.9213 128.741 23.9441C128.702 23.9671 128.659 23.982 128.614 23.9881C128.155 24.1381 127.675 24.2187 127.192 24.2271C126.714 24.2766 126.231 24.202 125.79 24.0103C125.35 23.8187 124.966 23.5165 124.676 23.1331C123.787 23.8969 122.638 24.2888 121.468 24.2271C120.925 24.2518 120.383 24.1628 119.876 23.9656C119.369 23.7684 118.91 23.4675 118.526 23.0821C118.145 22.6781 117.849 22.2013 117.657 21.6803C117.464 21.1593 117.379 20.6048 117.406 20.0501V15.1321C117.406 14.8931 117.519 14.7671 117.758 14.7671H119.871C120.11 14.7671 120.223 14.8931 120.223 15.1321V19.6731C120.2 20.2389 120.394 20.7922 120.765 21.2201C120.95 21.4163 121.175 21.5706 121.424 21.6725C121.674 21.7745 121.943 21.8217 122.212 21.8111C122.488 21.8231 122.763 21.7803 123.023 21.6852C123.282 21.5902 123.519 21.4446 123.722 21.2571C123.914 21.059 124.063 20.8237 124.161 20.5657C124.258 20.3077 124.301 20.0325 124.288 19.7571V15.1321C124.288 14.8931 124.401 14.7671 124.64 14.7671H126.779C127.018 14.7671 127.131 14.8931 127.131 15.1321V21.0571C127.131 21.5481 127.345 21.7871 127.76 21.7871C127.955 21.7947 128.15 21.7734 128.339 21.7241C128.387 21.7106 128.437 21.7082 128.485 21.7168C128.534 21.7255 128.58 21.7451 128.62 21.7741C128.661 21.8028 128.695 21.8404 128.72 21.8841C128.743 21.9278 128.756 21.9759 128.758 22.0251L128.904 23.5981Z" fill="#394149"/>
<path opacity="0.55" d="M148.889 23.598C148.899 23.6434 148.899 23.6905 148.889 23.736C148.879 23.7815 148.86 23.8245 148.832 23.862C148.806 23.8989 148.772 23.9296 148.732 23.952C148.691 23.9741 148.646 23.9868 148.6 23.989C148.133 24.1411 147.645 24.2217 147.153 24.228C146.406 24.2675 145.667 24.0564 145.053 23.628C144.788 23.4437 144.572 23.197 144.425 22.9095C144.278 22.6221 144.204 22.3028 144.21 21.98V19.018C144.237 18.454 144.048 17.901 143.682 17.471C143.506 17.2743 143.288 17.1193 143.044 17.0171C142.8 16.9149 142.537 16.868 142.273 16.88C142.035 16.8709 141.798 16.9161 141.58 17.0121C141.362 17.108 141.169 17.2523 141.015 17.434C140.683 17.8553 140.513 18.382 140.537 18.918V23.56C140.537 23.799 140.424 23.925 140.185 23.925H138.059C138.01 23.9311 137.959 23.9258 137.912 23.9097C137.865 23.8936 137.822 23.867 137.787 23.832C137.752 23.7967 137.725 23.754 137.709 23.707C137.693 23.6598 137.688 23.6095 137.694 23.56V19.018C137.721 18.4601 137.547 17.9111 137.203 17.471C137.05 17.2862 136.857 17.1375 136.64 17.0354C136.422 16.9333 136.185 16.8802 135.945 16.88C135.688 16.8697 135.432 16.9137 135.194 17.0092C134.955 17.1047 134.74 17.2494 134.561 17.434C134.201 17.842 134.016 18.3748 134.045 18.918V23.56C134.052 23.6095 134.046 23.6598 134.03 23.707C134.014 23.7531 133.987 23.795 133.953 23.8296C133.918 23.8642 133.876 23.8907 133.83 23.907C133.783 23.9229 133.733 23.9281 133.683 23.922H131.632C131.393 23.922 131.28 23.796 131.28 23.557V17.635C131.295 17.534 131.286 17.4309 131.254 17.334C131.222 17.2372 131.167 17.1491 131.095 17.077C131.023 17.0049 130.935 16.9506 130.838 16.9185C130.742 16.8863 130.639 16.8773 130.538 16.892H130.123C129.846 16.892 129.708 16.792 129.708 16.592V15.106C129.701 15.0141 129.726 14.9226 129.779 14.847C129.831 14.7714 129.908 14.7163 129.997 14.691C130.432 14.5329 130.893 14.4563 131.356 14.465C131.8 14.427 132.246 14.5155 132.643 14.7202C133.039 14.9249 133.369 15.2376 133.595 15.622C134.02 15.2192 134.524 14.9085 135.074 14.7094C135.625 14.5103 136.211 14.4271 136.795 14.465C137.362 14.4372 137.927 14.5434 138.445 14.775C138.963 15.0066 139.419 15.3571 139.776 15.798C140.193 15.345 140.705 14.9905 141.276 14.7599C141.847 14.5294 142.462 14.4286 143.076 14.465C143.625 14.4394 144.174 14.5279 144.687 14.725C145.2 14.9221 145.667 15.2234 146.058 15.61C146.44 16.0133 146.736 16.49 146.929 17.0111C147.121 17.5323 147.206 18.0871 147.178 18.642V21.07C147.178 21.548 147.392 21.787 147.794 21.787C147.989 21.796 148.184 21.7748 148.373 21.724C148.634 21.724 148.772 21.824 148.788 22.024L148.889 23.598Z" fill="#394149"/>
<path opacity="0.55" d="M1.37904 13.1308C2.30716 9.40044 4.45664 6.08782 7.48525 3.72041C10.5138 1.35299 14.2474 0.0668945 18.0915 0.0668945C21.9356 0.0668945 25.6692 1.35299 28.6978 3.72041C31.7264 6.08782 33.8759 9.40044 34.804 13.1308H33.294C30.7481 13.0937 28.2545 13.8546 26.163 15.3068C26.0424 15.3942 25.9165 15.474 25.786 15.5458H25.61C25.4795 15.474 25.3536 15.3942 25.233 15.3068C23.1226 13.8878 20.6372 13.1298 18.094 13.1298C15.5509 13.1298 13.0654 13.8878 10.955 15.3068C10.8344 15.3942 10.7085 15.474 10.578 15.5458H10.402C10.2715 15.474 10.1456 15.3942 10.025 15.3068C7.93304 13.8542 5.43863 13.0932 2.89204 13.1308H1.37904ZM30.579 21.0188C31.354 20.4155 32.3143 20.0998 33.296 20.1258H35.321V16.0868H33.295C31.5656 16.0661 29.8757 16.6045 28.477 17.6218C27.6899 18.2022 26.7376 18.5154 25.7595 18.5154C24.7815 18.5154 23.8292 18.2022 23.042 17.6218C21.6078 16.6233 19.9021 16.088 18.1545 16.088C16.4069 16.088 14.7013 16.6233 13.267 17.6218C12.4799 18.2022 11.5276 18.5154 10.5495 18.5154C9.57152 18.5154 8.6192 18.2022 7.83204 17.6218C6.41607 16.5913 4.70193 16.0523 2.95104 16.0868H0.863037V20.1248H2.88804C3.86979 20.0988 4.83012 20.4145 5.60504 21.0178C7.03663 22.0169 8.74031 22.5526 10.486 22.5526C12.2318 22.5526 13.9354 22.0169 15.367 21.0178C16.1429 20.4163 17.1026 20.1009 18.084 20.1248C19.0661 20.0967 20.0272 20.4125 20.801 21.0178C22.2353 22.0163 23.9409 22.5516 25.6885 22.5516C27.4361 22.5516 29.1418 22.0163 30.576 21.0178L30.579 21.0188ZM30.579 28.2398C31.354 27.6365 32.3143 27.3208 33.296 27.3468H35.321V23.3078H33.295C31.5656 23.2871 29.8757 23.8254 28.477 24.8428C27.6899 25.4232 26.7376 25.7364 25.7595 25.7364C24.7815 25.7364 23.8292 25.4232 23.042 24.8428C21.6077 23.8444 19.9021 23.3092 18.1545 23.3092C16.407 23.3092 14.7013 23.8444 13.267 24.8428C12.4799 25.4232 11.5276 25.7364 10.5495 25.7364C9.57152 25.7364 8.6192 25.4232 7.83204 24.8428C6.41604 23.8124 4.70192 23.2733 2.95104 23.3078H0.863037V27.3468H2.88804C3.86979 27.3208 4.83012 27.6365 5.60504 28.2398C7.03663 29.2389 8.74031 29.7746 10.486 29.7746C12.2318 29.7746 13.9354 29.2389 15.367 28.2398C16.1429 27.6383 17.1026 27.3229 18.084 27.3468C19.0661 27.3186 20.0272 27.6345 20.801 28.2398C22.2353 29.2383 23.9409 29.7736 25.6885 29.7736C27.4361 29.7736 29.1418 29.2383 30.576 28.2398H30.579Z" fill="#394149"/>
</g>
</svg>
