<svg width="156" height="36" viewBox="0 0 156 36" fill="none" xmlns="http://www.w3.org/2000/svg">
<g opacity="0.55">
<path opacity="0.55" d="M33.362 11.6372C33.815 11.6372 33.962 11.8012 33.962 12.2372V22.2002H39.082C39.522 22.2002 39.682 22.3642 39.682 22.8002V23.6872C39.682 24.1272 39.518 24.2872 39.082 24.2872H32.343C31.903 24.2872 31.727 24.1232 31.727 23.6872V12.2412C31.727 11.8012 31.903 11.6412 32.343 11.6412L33.362 11.6372Z" fill="#394149"/>
<path opacity="0.55" d="M44.156 16.0271C44.156 13.1211 45.993 11.3721 49.188 11.3721C52.383 11.3721 54.22 13.1211 54.22 16.0271V19.9021C54.22 22.8081 52.371 24.5571 49.188 24.5571C46.005 24.5571 44.156 22.8071 44.156 19.9011V16.0271ZM52.107 16.0271C52.107 14.3921 51.088 13.5111 49.251 13.5111C47.414 13.5111 46.408 14.4041 46.408 16.0271V19.9271C46.408 21.5751 47.414 22.4431 49.251 22.4431C51.088 22.4431 52.107 21.5371 52.107 19.9271V16.0271Z" fill="#394149"/>
<path opacity="0.55" d="M69.204 17.3598C69.695 17.3598 69.804 17.5238 69.804 17.9598V20.3498C69.8182 20.913 69.7061 21.4723 69.476 21.9866C69.2458 22.5009 68.9034 22.9571 68.474 23.3218C67.4069 24.1717 66.0613 24.5935 64.7 24.5048C61.442 24.5048 59.668 22.7558 59.668 19.8498V15.9498C59.668 13.0818 61.505 11.3208 64.7 11.3208C67.216 11.3208 68.851 12.3148 69.543 14.3018C69.5817 14.3765 69.6024 14.4591 69.6036 14.5432C69.6048 14.6273 69.5863 14.7105 69.5497 14.7862C69.5132 14.8619 69.4594 14.928 69.3928 14.9793C69.3262 15.0307 69.2485 15.0657 69.166 15.0818L68.185 15.4218C67.757 15.5728 67.585 15.4848 67.43 15.0448C67.2214 14.5076 66.8398 14.0552 66.3454 13.7591C65.851 13.463 65.272 13.3401 64.7 13.4098C62.851 13.4098 61.844 14.3028 61.844 15.9258V19.9258C61.844 21.5738 62.863 22.4418 64.7 22.4418C66.537 22.4418 67.669 21.5988 67.669 20.3658V19.4348H64.938C64.485 19.4348 64.322 19.2588 64.322 18.8188V17.9638C64.322 17.5238 64.486 17.3638 64.938 17.3638L69.204 17.3598Z" fill="#394149"/>
<path opacity="0.55" d="M75.003 16.0271C75.003 13.1211 76.84 11.3721 80.035 11.3721C83.23 11.3721 85.067 13.1211 85.067 16.0271V19.9021C85.067 22.8081 83.218 24.5571 80.035 24.5571C76.852 24.5571 75.003 22.8081 75.003 19.9021V16.0271ZM82.941 16.0271C82.941 14.3921 81.922 13.5111 80.098 13.5111C78.274 13.5111 77.242 14.4041 77.242 16.0271V19.9271C77.242 21.5751 78.261 22.4431 80.098 22.4431C81.935 22.4431 82.941 21.5371 82.941 19.9271V16.0271Z" fill="#394149"/>
<path opacity="0.55" d="M90.992 12.0022C90.992 11.7252 91.08 11.6372 91.357 11.6372H91.936C92.213 11.6372 92.276 11.7252 92.276 12.0022V23.9282C92.276 24.2052 92.276 24.2932 91.936 24.2932H91.357C91.08 24.2932 90.992 24.2052 90.992 23.9282V12.0022Z" fill="#394149"/>
<path opacity="0.55" d="M103.739 11.6372C104.787 11.6372 105.791 12.0534 106.532 12.7941C107.273 13.5349 107.689 14.5396 107.689 15.5872C107.689 16.6348 107.273 17.6395 106.532 18.3803C105.791 19.121 104.787 19.5372 103.739 19.5372H99.962V23.9272C99.962 24.2042 99.899 24.2922 99.635 24.2922H99.039C98.775 24.2922 98.674 24.2042 98.674 23.9272V12.0022C98.674 11.7252 98.774 11.6372 99.039 11.6372H103.739ZM103.623 18.2872C104.35 18.2872 105.048 17.9983 105.562 17.4839C106.077 16.9696 106.366 16.2721 106.366 15.5447C106.366 14.8174 106.077 14.1198 105.562 13.6055C105.048 13.0911 104.35 12.8022 103.623 12.8022H99.849V18.2872H103.623Z" fill="#394149"/>
<path opacity="0.55" d="M117.511 11.3849C118.482 11.2776 119.462 11.4864 120.305 11.9804C121.148 12.4744 121.81 13.2272 122.191 14.1269C122.291 14.3269 122.191 14.4919 121.991 14.5919L121.437 14.8439C121.211 14.9319 121.122 14.9189 120.984 14.6799C120.699 14.012 120.209 13.4521 119.584 13.0813C118.96 12.7104 118.234 12.5478 117.511 12.6169C115.385 12.6169 114.228 13.4599 114.228 14.9689C114.216 15.4306 114.371 15.881 114.665 16.2371C114.959 16.5931 115.372 16.8307 115.828 16.9059C116.505 17.1257 117.206 17.26 117.916 17.3059C118.776 17.3518 119.624 17.5257 120.432 17.8219C121.052 18.0176 121.585 18.4209 121.943 18.9638C122.3 19.5067 122.46 20.1561 122.395 20.8029C122.395 23.1549 120.684 24.5769 117.539 24.5769C116.508 24.696 115.468 24.4586 114.59 23.904C113.713 23.3495 113.052 22.5113 112.718 21.5289C112.696 21.484 112.684 21.4349 112.683 21.3849C112.682 21.3348 112.692 21.2852 112.713 21.2396C112.733 21.1939 112.763 21.1534 112.801 21.1207C112.839 21.0881 112.884 21.0643 112.932 21.0509L113.486 20.8509C113.53 20.8331 113.576 20.8246 113.624 20.8259C113.671 20.8272 113.717 20.8382 113.76 20.8583C113.802 20.8785 113.84 20.9072 113.871 20.9428C113.902 20.9783 113.925 21.0199 113.939 21.0649C114.221 21.7757 114.722 22.3782 115.369 22.7853C116.016 23.1924 116.776 23.3828 117.539 23.3289C119.917 23.3289 121.087 22.4989 121.087 20.8129C121.109 20.3697 120.973 19.9331 120.704 19.5807C120.434 19.2282 120.048 18.9827 119.615 18.8879C118.964 18.6939 118.293 18.5757 117.615 18.5359L116.256 18.3599C115.831 18.2696 115.411 18.156 114.998 18.0199C114.59 17.8969 114.21 17.6962 113.878 17.4289C113.545 17.127 113.282 16.7555 113.108 16.3408C112.934 15.9261 112.854 15.4782 112.872 15.0289C112.957 12.8189 114.605 11.3849 117.511 11.3849Z" fill="#394149"/>
<path opacity="0.55" d="M129.173 19.9872C129.236 20.8698 129.632 21.6956 130.279 22.2984C130.927 22.9012 131.779 23.2364 132.664 23.2364C133.549 23.2364 134.401 22.9012 135.049 22.2984C135.696 21.6956 136.092 20.8698 136.155 19.9872V12.0022C136.155 11.7252 136.243 11.6372 136.52 11.6372H137.099C137.376 11.6372 137.464 11.7252 137.464 12.0022V19.9782C137.464 22.8342 135.778 24.5572 132.671 24.5572C129.564 24.5572 127.878 22.8342 127.878 19.9782V12.0022C127.878 11.7252 127.966 11.6372 128.23 11.6372H128.821C129.085 11.6372 129.173 11.7252 129.173 12.0022V19.9872Z" fill="#394149"/>
<path opacity="0.55" d="M154.824 11.6359C155.101 11.6359 155.189 11.7239 155.189 12.0009V23.9269C155.189 24.2039 155.101 24.2919 154.824 24.2919H154.296C154.032 24.2919 153.944 24.2039 153.944 23.9269V16.6689C153.944 15.6126 154.016 14.5575 154.158 13.5109H154.083C153.69 14.4678 153.232 15.3966 152.712 16.2909L150.012 21.0589C149.979 21.1416 149.922 21.2123 149.847 21.2617C149.773 21.3112 149.686 21.337 149.597 21.3359H149.245C149.154 21.3365 149.066 21.3107 148.99 21.2614C148.913 21.2122 148.854 21.1418 148.817 21.0589L146.075 16.2409C145.588 15.3594 145.168 14.4428 144.817 13.4989H144.742C144.87 14.5551 144.937 15.6179 144.942 16.6819V23.9279C144.942 24.2049 144.854 24.2929 144.577 24.2929H144.076C143.799 24.2929 143.711 24.2049 143.711 23.9279V12.0009C143.711 11.7239 143.799 11.6359 144.076 11.6359H144.529C144.632 11.6264 144.735 11.6491 144.825 11.7009C144.914 11.7527 144.986 11.8309 145.029 11.9249L149.429 19.7499L153.807 12.0009C153.945 11.7369 154.021 11.7009 154.298 11.7009L154.824 11.6359Z" fill="#394149"/>
<path opacity="0.55" d="M10.982 22.38V31.48C10.9726 31.8223 10.8299 32.1475 10.5844 32.3863C10.339 32.6251 10.01 32.7587 9.6675 32.7587C9.32502 32.7587 8.99605 32.6251 8.75056 32.3863C8.50508 32.1475 8.36244 31.8223 8.353 31.48V22.393C8.71898 22.6604 9.15787 22.8097 9.611 22.821C10.1048 22.8351 10.5886 22.6799 10.982 22.381V22.38ZM22.182 19.751C21.8484 19.751 21.5284 19.8835 21.2925 20.1195C21.0565 20.3554 20.924 20.6754 20.924 21.009V22.594C20.9334 22.9363 21.0761 23.2615 21.3216 23.5003C21.5671 23.7391 21.896 23.8727 22.2385 23.8727C22.581 23.8727 22.9099 23.7391 23.1554 23.5003C23.4009 23.2615 23.5436 22.9363 23.553 22.594V21.072C23.5628 20.8916 23.5336 20.7113 23.4675 20.5432C23.4014 20.3751 23.2998 20.2232 23.1697 20.0978C23.0396 19.9725 22.8841 19.8766 22.7137 19.8168C22.5432 19.757 22.3619 19.7345 22.182 19.751ZM5.5 25.827C5.04671 25.8141 4.60776 25.6653 4.24 25.4V34.52C4.24 34.6935 4.27417 34.8653 4.34056 35.0255C4.40694 35.1858 4.50425 35.3314 4.62691 35.4541C4.74958 35.5768 4.8952 35.6741 5.05548 35.7404C5.21575 35.8068 5.38752 35.841 5.561 35.841C5.73448 35.841 5.90625 35.8068 6.06652 35.7404C6.2268 35.6741 6.37242 35.5768 6.49509 35.4541C6.61775 35.3314 6.71506 35.1858 6.78144 35.0255C6.84783 34.8653 6.882 34.6935 6.882 34.52V25.462C6.47123 25.7278 5.98641 25.8556 5.498 25.827H5.5ZM18.08 17.021C17.9096 17.0125 17.7392 17.0387 17.5792 17.0981C17.4192 17.1574 17.273 17.2487 17.1494 17.3664C17.0259 17.4841 16.9275 17.6257 16.8604 17.7826C16.7933 17.9395 16.7588 18.1084 16.759 18.279V25.286C16.759 25.6364 16.8982 25.9724 17.1459 26.2201C17.3936 26.4678 17.7296 26.607 18.08 26.607C18.4304 26.607 18.7664 26.4678 19.0141 26.2201C19.2618 25.9724 19.401 25.6364 19.401 25.286V18.367C19.411 18.1854 19.3816 18.0038 19.3147 17.8347C19.2478 17.6656 19.1451 17.513 19.0135 17.3875C18.882 17.2619 18.7248 17.1664 18.5527 17.1074C18.3807 17.0485 18.1979 17.0275 18.017 17.046L18.08 17.021ZM13.9 19.713C13.4261 19.7098 12.9647 19.5604 12.579 19.285V28.431C12.579 28.7814 12.7182 29.1174 12.9659 29.3651C13.2136 29.6128 13.5496 29.752 13.9 29.752C14.2504 29.752 14.5864 29.6128 14.8341 29.3651C15.0818 29.1174 15.221 28.7814 15.221 28.431V19.3C14.8218 19.5972 14.3345 19.7521 13.837 19.74L13.9 19.713ZM2.642 26.72V1.17C2.63858 0.858507 2.51243 0.560936 2.29094 0.341884C2.06946 0.122832 1.77051 -1.88072e-05 1.459 2.15957e-09H1.183C0.871488 -1.88072e-05 0.572541 0.122832 0.351056 0.341884C0.12957 0.560936 0.0034232 0.858507 0 1.17V26.72C0.000530028 27.0333 0.125433 27.3336 0.34726 27.5549C0.569087 27.7761 0.869687 27.9003 1.183 27.9H1.46C1.77314 27.9 2.07348 27.7757 2.29509 27.5545C2.5167 27.3333 2.64147 27.0331 2.642 26.72ZM5.636 24.858H5.359C5.20361 24.8581 5.04972 24.8276 4.90613 24.7682C4.76254 24.7088 4.63208 24.6217 4.5222 24.5118C4.41232 24.4019 4.32519 24.2715 4.26578 24.1279C4.20638 23.9843 4.17587 23.8304 4.176 23.675V4.214C4.17942 3.90251 4.30557 3.60494 4.52706 3.38588C4.74854 3.16683 5.04749 3.04398 5.359 3.044H5.636C5.94751 3.04398 6.24646 3.16683 6.46794 3.38588C6.68943 3.60494 6.81558 3.90251 6.819 4.214V23.7C6.81913 23.8554 6.78862 24.0093 6.72922 24.1529C6.66981 24.2965 6.58268 24.4269 6.4728 24.5368C6.36292 24.6467 6.23246 24.7338 6.08887 24.7932C5.94528 24.8526 5.79139 24.8831 5.636 24.883V24.858ZM9.8 21.864H9.511C9.2007 21.864 8.9031 21.7407 8.68369 21.5213C8.46427 21.3019 8.341 21.0043 8.341 20.694V7.234C8.33928 7.07926 8.36827 6.92572 8.4263 6.78227C8.48433 6.63881 8.57024 6.50829 8.67905 6.39827C8.78787 6.28824 8.91743 6.2009 9.06024 6.14129C9.20304 6.08168 9.35625 6.05099 9.511 6.051H9.8C10.1115 6.05442 10.4091 6.18057 10.6281 6.40206C10.8472 6.62354 10.97 6.92249 10.97 7.234V20.694C10.97 21.0043 10.8467 21.3019 10.6273 21.5213C10.4079 21.7407 10.1103 21.864 9.8 21.864ZM13.964 18.782H13.7C13.3885 18.782 13.0895 18.6592 12.8681 18.4401C12.6466 18.2211 12.5204 17.9235 12.517 17.612V10.366C12.5066 10.2044 12.5295 10.0424 12.5843 9.89006C12.6391 9.73769 12.7246 9.59821 12.8355 9.48026C12.9464 9.3623 13.0804 9.2684 13.2291 9.20436C13.3778 9.14033 13.5381 9.10753 13.7 9.108H13.977C14.1324 9.10787 14.2863 9.13838 14.4299 9.19778C14.5735 9.25719 14.7039 9.34432 14.8138 9.4542C14.9237 9.56408 15.0108 9.69454 15.0702 9.83813C15.1296 9.98172 15.1601 10.1356 15.16 10.291V17.591C15.1623 17.7478 15.1333 17.9034 15.0749 18.0489C15.0164 18.1944 14.9297 18.3269 14.8196 18.4385C14.7095 18.5502 14.5783 18.6388 14.4337 18.6994C14.289 18.7599 14.1338 18.791 13.977 18.791L13.964 18.782ZM18.141 16.082H17.864C17.7086 16.0821 17.5547 16.0516 17.4111 15.9922C17.2675 15.9328 17.1371 15.8457 17.0272 15.7358C16.9173 15.6259 16.8302 15.4955 16.7708 15.3519C16.7114 15.2083 16.6809 15.0544 16.681 14.899V13.02C16.6844 12.7085 16.8106 12.4109 17.0321 12.1919C17.2535 11.9728 17.5525 11.85 17.864 11.85H18.141C18.4525 11.85 18.7515 11.9728 18.9729 12.1919C19.1944 12.4109 19.3206 12.7085 19.324 13.02V14.894C19.324 15.2055 19.2012 15.5045 18.9821 15.7259C18.7631 15.9474 18.4655 16.0736 18.154 16.077L18.141 16.082Z" fill="#394149"/>
</g>
</svg>
