<svg width="230" height="53" viewBox="0 0 230 53" fill="none" xmlns="http://www.w3.org/2000/svg">
<path d="M203.5 0H26.5C11.8645 0 0 11.8645 0 26.5C0 41.1355 11.8645 53 26.5 53H203.5C218.136 53 230 41.1355 230 26.5C230 11.8645 218.136 0 203.5 0Z" fill="white"/>
<path d="M23.6502 31.1491C22.9826 31.1491 22.3825 31.0213 21.8498 30.7656C21.3207 30.5064 20.8981 30.1513 20.582 29.7003C20.266 29.2493 20.0973 28.7344 20.076 28.1555H21.674C21.7131 28.6243 21.9208 29.0096 22.2972 29.3114C22.6737 29.6133 23.1246 29.7642 23.6502 29.7642C24.0692 29.7642 24.4403 29.6683 24.7635 29.4766C25.0902 29.2812 25.3459 29.0131 25.5305 28.6722C25.7188 28.3313 25.8129 27.9425 25.8129 27.5057C25.8129 27.0618 25.717 26.6658 25.5252 26.3178C25.3335 25.9698 25.0689 25.6964 24.7315 25.4975C24.3977 25.2987 24.0142 25.1974 23.581 25.1939C23.2507 25.1939 22.9187 25.2507 22.5849 25.3643C22.2511 25.478 21.9812 25.6271 21.7752 25.8118L20.2678 25.5881L20.8803 20.0909H26.8782V21.5025H22.2493L21.9031 24.5547H21.967C22.18 24.3487 22.4624 24.1765 22.8139 24.038C23.169 23.8995 23.549 23.8303 23.9538 23.8303C24.6179 23.8303 25.2092 23.9883 25.7276 24.3043C26.2496 24.6204 26.6598 25.0518 26.9581 25.5987C27.2599 26.142 27.4091 26.767 27.4055 27.4737C27.4091 28.1804 27.2493 28.8107 26.9261 29.3647C26.6065 29.9187 26.1626 30.3555 25.5945 30.6751C25.0298 30.9911 24.3817 31.1491 23.6502 31.1491ZM30.0263 31.1012C29.7351 31.1012 29.4847 30.9982 29.2752 30.7923C29.0657 30.5827 28.9609 30.3306 28.9609 30.0359C28.9609 29.7447 29.0657 29.4961 29.2752 29.2901C29.4847 29.0806 29.7351 28.9759 30.0263 28.9759C30.3175 28.9759 30.5678 29.0806 30.7773 29.2901C30.9869 29.4961 31.0916 29.7447 31.0916 30.0359C31.0916 30.2312 31.0419 30.4105 30.9425 30.5739C30.8466 30.7337 30.7188 30.8615 30.5589 30.9574C30.3991 31.0533 30.2216 31.1012 30.0263 31.1012ZM36.6061 31.1811C35.7645 31.1776 35.0454 30.9556 34.4488 30.5153C33.8522 30.0749 33.3959 29.4339 33.0798 28.5923C32.7638 27.7507 32.6057 26.7369 32.6057 25.5508C32.6057 24.3683 32.7638 23.358 33.0798 22.5199C33.3994 21.6818 33.8575 21.0426 34.4541 20.6023C35.0542 20.1619 35.7716 19.9418 36.6061 19.9418C37.4406 19.9418 38.1562 20.1637 38.7528 20.6076C39.3493 21.0479 39.8057 21.6871 40.1217 22.5252C40.4413 23.3597 40.6011 24.3683 40.6011 25.5508C40.6011 26.7404 40.4431 27.756 40.127 28.5977C39.811 29.4357 39.3547 30.0767 38.7581 30.5206C38.1615 30.9609 37.4442 31.1811 36.6061 31.1811ZM36.6061 29.7589C37.3447 29.7589 37.9218 29.3984 38.3373 28.6776C38.7563 27.9567 38.9658 26.9144 38.9658 25.5508C38.9658 24.6452 38.8699 23.88 38.6782 23.255C38.49 22.6264 38.2183 22.1506 37.8632 21.8274C37.5116 21.5007 37.0926 21.3374 36.6061 21.3374C35.871 21.3374 35.2939 21.6996 34.8749 22.424C34.4559 23.1484 34.2446 24.1907 34.241 25.5508C34.241 26.4599 34.3351 27.2287 34.5233 27.8572C34.7151 28.4822 34.9868 28.9563 35.3383 29.2795C35.6899 29.5991 36.1125 29.7589 36.6061 29.7589ZM46.6096 31V20.0909H50.4981C51.3433 20.0909 52.0447 20.2365 52.6022 20.5277C53.1633 20.8189 53.5823 21.2219 53.8593 21.7369C54.1363 22.2482 54.2748 22.8395 54.2748 23.5107C54.2748 24.1783 54.1345 24.766 53.854 25.2738C53.577 25.7781 53.1579 26.1705 52.5969 26.451C52.0393 26.7315 51.338 26.8718 50.4928 26.8718H47.5471V25.4549H50.3437C50.8763 25.4549 51.3096 25.3786 51.6434 25.2259C51.9807 25.0732 52.2275 24.8512 52.3838 24.56C52.54 24.2688 52.6182 23.919 52.6182 23.5107C52.6182 23.0987 52.5383 22.7418 52.3785 22.44C52.2222 22.1381 51.9754 21.9073 51.6381 21.7475C51.3042 21.5842 50.8657 21.5025 50.3224 21.5025H48.2556V31H46.6096ZM51.9949 26.0781L54.6903 31H52.8153L50.1732 26.0781H51.9949ZM58.5308 31.1811C58.0123 31.1811 57.5436 31.0852 57.1246 30.8935C56.7055 30.6982 56.3735 30.4158 56.1285 30.0465C55.887 29.6772 55.7662 29.2244 55.7662 28.6882C55.7662 28.2266 55.855 27.8466 56.0326 27.5483C56.2101 27.25 56.4498 27.0138 56.7517 26.8398C57.0535 26.6658 57.3909 26.5344 57.7638 26.4457C58.1366 26.3569 58.5166 26.2894 58.9037 26.2433C59.3937 26.1864 59.7915 26.1403 60.0969 26.1048C60.4023 26.0657 60.6242 26.0036 60.7627 25.9183C60.9012 25.8331 60.9704 25.6946 60.9704 25.5028V25.4656C60.9704 25.0004 60.839 24.6399 60.5763 24.3842C60.317 24.1286 59.93 24.0007 59.415 24.0007C58.8788 24.0007 58.4562 24.1197 58.1473 24.3576C57.8419 24.592 57.6306 24.853 57.5134 25.1406L56.0166 24.7997C56.1942 24.3026 56.4534 23.9013 56.7943 23.5959C57.1388 23.2869 57.5347 23.0632 57.9822 22.9247C58.4296 22.7827 58.9001 22.7116 59.3937 22.7116C59.7204 22.7116 60.0667 22.7507 60.4324 22.8288C60.8018 22.9034 61.1462 23.0419 61.4658 23.2443C61.789 23.4467 62.0535 23.7362 62.2595 24.1126C62.4655 24.4854 62.5684 24.9702 62.5684 25.5668V31H61.0131V29.8814H60.9491C60.8461 30.0874 60.6917 30.2898 60.4857 30.4886C60.2797 30.6875 60.0152 30.8526 59.692 30.984C59.3689 31.1154 58.9818 31.1811 58.5308 31.1811ZM58.877 29.9027C59.3174 29.9027 59.6938 29.8157 60.0063 29.6417C60.3224 29.4677 60.5621 29.2404 60.7254 28.9599C60.8923 28.6758 60.9758 28.3722 60.9758 28.049V26.9943C60.9189 27.0511 60.8089 27.1044 60.6455 27.1541C60.4857 27.2003 60.3028 27.2411 60.0969 27.2766C59.8909 27.3086 59.6903 27.3388 59.4949 27.3672C59.2996 27.392 59.1363 27.4134 59.0049 27.4311C58.6959 27.4702 58.4136 27.5359 58.1579 27.6282C57.9058 27.7205 57.7034 27.8537 57.5507 28.0277C57.4015 28.1982 57.327 28.4254 57.327 28.7095C57.327 29.1037 57.4726 29.402 57.7638 29.6044C58.055 29.8033 58.426 29.9027 58.877 29.9027ZM68.5091 22.8182V24.0966H64.04V22.8182H68.5091ZM65.2385 20.858H66.8311V28.5977C66.8311 28.9066 66.8773 29.1392 66.9696 29.2955C67.062 29.4482 67.1809 29.5529 67.3265 29.6097C67.4757 29.663 67.6373 29.6896 67.8113 29.6896C67.9391 29.6896 68.051 29.6808 68.1468 29.663C68.2427 29.6452 68.3173 29.631 68.3706 29.6204L68.6582 30.9361C68.5659 30.9716 68.4345 31.0071 68.264 31.0426C68.0936 31.0817 67.8805 31.103 67.6248 31.1065C67.2058 31.1136 66.8152 31.0391 66.4529 30.8828C66.0907 30.7266 65.7978 30.4851 65.574 30.1584C65.3503 29.8317 65.2385 29.4215 65.2385 28.9279V20.858ZM70.2709 31V22.8182H71.8635V31H70.2709ZM71.0752 21.5558C70.7982 21.5558 70.5603 21.4634 70.3614 21.2788C70.1661 21.0906 70.0684 20.8668 70.0684 20.6076C70.0684 20.3448 70.1661 20.1211 70.3614 19.9364C70.5603 19.7482 70.7982 19.6541 71.0752 19.6541C71.3522 19.6541 71.5883 19.7482 71.7836 19.9364C71.9825 20.1211 72.0819 20.3448 72.0819 20.6076C72.0819 20.8668 71.9825 21.0906 71.7836 21.2788C71.5883 21.4634 71.3522 21.5558 71.0752 21.5558ZM75.5989 26.142V31H74.0062V22.8182H75.535V24.1499H75.6362C75.8244 23.7166 76.1191 23.3686 76.5204 23.1058C76.9252 22.843 77.4348 22.7116 78.0492 22.7116C78.6067 22.7116 79.095 22.8288 79.514 23.0632C79.9331 23.294 80.258 23.6385 80.4888 24.0966C80.7196 24.5547 80.8351 25.1211 80.8351 25.7958V31H79.2424V25.9876C79.2424 25.3945 79.0879 24.9311 78.7789 24.5973C78.47 24.2599 78.0456 24.0913 77.5059 24.0913C77.1365 24.0913 76.8081 24.1712 76.5204 24.331C76.2363 24.4908 76.0108 24.7251 75.8439 25.0341C75.6806 25.3395 75.5989 25.7088 75.5989 26.142ZM86.4015 34.2386C85.7516 34.2386 85.1923 34.1534 84.7235 33.983C84.2583 33.8125 83.8784 33.587 83.5836 33.3065C83.2889 33.0259 83.0687 32.7188 82.9231 32.3849L84.2921 31.8203C84.388 31.9766 84.5158 32.1417 84.6756 32.3157C84.839 32.4933 85.0591 32.6442 85.3361 32.7685C85.6167 32.8928 85.9771 32.9549 86.4174 32.9549C87.0211 32.9549 87.5201 32.8075 87.9142 32.5128C88.3084 32.2216 88.5055 31.7564 88.5055 31.1172V29.5085H88.4043C88.3084 29.6825 88.1699 29.8761 87.9888 30.0891C87.8113 30.3022 87.5662 30.4869 87.2537 30.6431C86.9412 30.7994 86.5346 30.8775 86.0339 30.8775C85.3876 30.8775 84.8052 30.7266 84.2868 30.4247C83.7718 30.1193 83.3635 29.6701 83.0616 29.0771C82.7633 28.4805 82.6142 27.7472 82.6142 26.8771C82.6142 26.0071 82.7615 25.2614 83.0563 24.6399C83.3546 24.0185 83.763 23.5426 84.2814 23.2124C84.7999 22.8786 85.3876 22.7116 86.0446 22.7116C86.5524 22.7116 86.9625 22.7969 87.275 22.9673C87.5875 23.1342 87.8308 23.3295 88.0048 23.5533C88.1824 23.777 88.3191 23.9741 88.415 24.1445H88.5321V22.8182H90.0929V31.1811C90.0929 31.8842 89.9295 32.4613 89.6028 32.9123C89.2761 33.3633 88.834 33.6971 88.2765 33.9137C87.7225 34.1303 87.0975 34.2386 86.4015 34.2386ZM86.3855 29.5565C86.8436 29.5565 87.2306 29.4499 87.5467 29.2369C87.8663 29.0202 88.1078 28.7113 88.2711 28.31C88.438 27.9052 88.5215 27.4205 88.5215 26.8558C88.5215 26.3054 88.4398 25.8207 88.2765 25.4016C88.1131 24.9826 87.8734 24.6559 87.5574 24.4215C87.2413 24.1836 86.8507 24.0646 86.3855 24.0646C85.9061 24.0646 85.5066 24.1889 85.187 24.4375C84.8674 24.6825 84.6259 25.0163 84.4625 25.4389C84.3027 25.8615 84.2228 26.3338 84.2228 26.8558C84.2228 27.392 84.3045 27.8626 84.4679 28.2674C84.6312 28.6722 84.8727 28.9883 85.1923 29.2156C85.5154 29.4428 85.9132 29.5565 86.3855 29.5565ZM98.3599 24.8157L96.9164 25.0714C96.856 24.8867 96.7601 24.7109 96.6287 24.544C96.5009 24.3771 96.3269 24.2404 96.1067 24.1339C95.8865 24.0273 95.6113 23.9741 95.2811 23.9741C94.8301 23.9741 94.4537 24.0753 94.1518 24.2777C93.85 24.4766 93.699 24.734 93.699 25.0501C93.699 25.3235 93.8002 25.5437 94.0027 25.7106C94.2051 25.8775 94.5318 26.0142 94.9828 26.1207L96.2825 26.419C97.0353 26.593 97.5964 26.8612 97.9657 27.2234C98.335 27.5856 98.5197 28.0561 98.5197 28.6349C98.5197 29.125 98.3777 29.5618 98.0936 29.9453C97.813 30.3253 97.4206 30.6236 96.9164 30.8402C96.4157 31.0568 95.835 31.1651 95.1745 31.1651C94.2583 31.1651 93.5108 30.9698 92.932 30.5792C92.3532 30.185 91.998 29.6257 91.8667 28.9013L93.4061 28.6669C93.502 29.0682 93.699 29.3718 93.9973 29.5778C94.2956 29.7802 94.6845 29.8814 95.1639 29.8814C95.6859 29.8814 96.1032 29.7731 96.4157 29.5565C96.7282 29.3363 96.8844 29.0682 96.8844 28.7521C96.8844 28.4964 96.7885 28.2816 96.5968 28.1076C96.4086 27.9336 96.1191 27.8022 95.7285 27.7134L94.3436 27.4098C93.5801 27.2358 93.0154 26.9588 92.6497 26.5788C92.2875 26.1989 92.1064 25.7177 92.1064 25.1353C92.1064 24.6523 92.2413 24.2298 92.5112 23.8675C92.7811 23.5053 93.1539 23.223 93.6298 23.0206C94.1056 22.8146 94.6507 22.7116 95.2651 22.7116C96.1493 22.7116 96.8453 22.9034 97.3532 23.2869C97.861 23.6669 98.1966 24.1765 98.3599 24.8157Z" fill="#1D1D1F"/>
<path d="M121.799 23.2162L119.94 26.9872L115.78 27.5942C115.612 27.6196 115.455 27.6913 115.325 27.8013C115.196 27.9113 115.1 28.0552 115.048 28.2168C114.996 28.3784 114.99 28.5513 115.031 28.716C115.072 28.8807 115.158 29.0308 115.28 29.1492L118.29 32.0822L117.578 36.2252C117.549 36.3926 117.568 36.5647 117.632 36.722C117.696 36.8792 117.803 37.0155 117.94 37.1153C118.078 37.2151 118.24 37.2746 118.41 37.2869C118.579 37.2993 118.749 37.2641 118.899 37.1852L122.621 35.2292L126.343 37.1852C126.493 37.2641 126.663 37.2993 126.832 37.2869C127.002 37.2746 127.164 37.2151 127.302 37.1153C127.439 37.0155 127.546 36.8792 127.61 36.722C127.674 36.5647 127.693 36.3926 127.664 36.2252L126.948 32.0812L129.958 29.1482C130.08 29.0298 130.166 28.8797 130.207 28.715C130.248 28.5503 130.242 28.3774 130.19 28.2158C130.138 28.0542 130.042 27.9103 129.913 27.8003C129.783 27.6903 129.626 27.6186 129.458 27.5932L125.298 26.9862L123.434 23.2162C123.359 23.0638 123.242 22.9355 123.098 22.8458C122.953 22.756 122.787 22.7085 122.616 22.7085C122.446 22.7085 122.28 22.756 122.135 22.8458C121.991 22.9355 121.874 23.0638 121.799 23.2162Z" fill="#06C167"/>
<path d="M142.799 23.2162L140.94 26.9872L136.78 27.5942C136.612 27.6196 136.455 27.6913 136.325 27.8013C136.196 27.9113 136.1 28.0552 136.048 28.2168C135.996 28.3784 135.99 28.5513 136.031 28.716C136.072 28.8807 136.158 29.0308 136.28 29.1492L139.29 32.0822L138.578 36.2252C138.549 36.3926 138.568 36.5647 138.632 36.722C138.696 36.8792 138.803 37.0155 138.94 37.1153C139.078 37.2151 139.24 37.2746 139.41 37.2869C139.579 37.2993 139.749 37.2641 139.899 37.1852L143.621 35.2292L147.343 37.1852C147.493 37.2641 147.663 37.2993 147.832 37.2869C148.002 37.2746 148.164 37.2151 148.302 37.1153C148.439 37.0155 148.546 36.8792 148.61 36.722C148.674 36.5647 148.693 36.3926 148.664 36.2252L147.948 32.0812L150.958 29.1482C151.08 29.0298 151.166 28.8797 151.207 28.715C151.248 28.5503 151.242 28.3774 151.19 28.2158C151.138 28.0542 151.042 27.9103 150.913 27.8003C150.783 27.6903 150.626 27.6186 150.458 27.5932L146.298 26.9862L144.434 23.2162C144.359 23.0638 144.242 22.9355 144.098 22.8458C143.953 22.756 143.787 22.7085 143.616 22.7085C143.446 22.7085 143.28 22.756 143.135 22.8458C142.991 22.9355 142.874 23.0638 142.799 23.2162Z" fill="#06C167"/>
<path d="M163.799 23.2162L161.94 26.9872L157.78 27.5942C157.612 27.6196 157.455 27.6913 157.325 27.8013C157.196 27.9113 157.1 28.0552 157.048 28.2168C156.996 28.3784 156.99 28.5513 157.031 28.716C157.072 28.8807 157.158 29.0308 157.28 29.1492L160.29 32.0822L159.578 36.2252C159.549 36.3926 159.568 36.5647 159.632 36.722C159.696 36.8792 159.803 37.0155 159.94 37.1153C160.078 37.2151 160.24 37.2746 160.41 37.2869C160.579 37.2993 160.749 37.2641 160.899 37.1852L164.621 35.2292L168.343 37.1852C168.493 37.2641 168.663 37.2993 168.832 37.2869C169.002 37.2746 169.164 37.2151 169.302 37.1153C169.439 37.0155 169.546 36.8792 169.61 36.722C169.674 36.5647 169.693 36.3926 169.664 36.2252L168.948 32.0812L171.958 29.1482C172.08 29.0298 172.166 28.8797 172.207 28.715C172.248 28.5503 172.242 28.3774 172.19 28.2158C172.138 28.0542 172.042 27.9103 171.913 27.8003C171.783 27.6903 171.626 27.6186 171.458 27.5932L167.298 26.9862L165.434 23.2162C165.359 23.0638 165.242 22.9355 165.098 22.8458C164.953 22.756 164.787 22.7085 164.616 22.7085C164.446 22.7085 164.28 22.756 164.135 22.8458C163.991 22.9355 163.874 23.0638 163.799 23.2162Z" fill="#06C167"/>
<path d="M184.799 23.2162L182.94 26.9872L178.78 27.5942C178.612 27.6196 178.455 27.6913 178.325 27.8013C178.196 27.9113 178.1 28.0552 178.048 28.2168C177.996 28.3784 177.99 28.5513 178.031 28.716C178.072 28.8807 178.158 29.0308 178.28 29.1492L181.29 32.0822L180.578 36.2252C180.549 36.3926 180.568 36.5647 180.632 36.722C180.696 36.8792 180.803 37.0155 180.94 37.1153C181.078 37.2151 181.24 37.2746 181.41 37.2869C181.579 37.2993 181.749 37.2641 181.899 37.1852L185.621 35.2292L189.343 37.1852C189.493 37.2641 189.663 37.2993 189.832 37.2869C190.002 37.2746 190.164 37.2151 190.302 37.1153C190.439 37.0155 190.546 36.8792 190.61 36.722C190.674 36.5647 190.693 36.3926 190.664 36.2252L189.948 32.0812L192.958 29.1482C193.08 29.0298 193.166 28.8797 193.207 28.715C193.248 28.5503 193.242 28.3774 193.19 28.2158C193.138 28.0542 193.042 27.9103 192.913 27.8003C192.783 27.6903 192.626 27.6186 192.458 27.5932L188.298 26.9862L186.434 23.2162C186.359 23.0638 186.242 22.9355 186.098 22.8458C185.953 22.756 185.787 22.7085 185.616 22.7085C185.446 22.7085 185.28 22.756 185.135 22.8458C184.991 22.9355 184.874 23.0638 184.799 23.2162Z" fill="#06C167"/>
<path d="M205.799 23.2162L203.94 26.9872L199.78 27.5942C199.612 27.6196 199.455 27.6913 199.325 27.8013C199.196 27.9113 199.1 28.0552 199.048 28.2168C198.996 28.3784 198.99 28.5513 199.031 28.716C199.072 28.8807 199.158 29.0308 199.28 29.1492L202.29 32.0822L201.578 36.2252C201.549 36.3926 201.568 36.5647 201.632 36.722C201.696 36.8792 201.803 37.0155 201.94 37.1153C202.078 37.2151 202.24 37.2746 202.41 37.2869C202.579 37.2993 202.749 37.2641 202.899 37.1852L206.621 35.2292L210.343 37.1852C210.493 37.2641 210.663 37.2993 210.832 37.2869C211.002 37.2746 211.164 37.2151 211.302 37.1153C211.439 37.0155 211.546 36.8792 211.61 36.722C211.674 36.5647 211.693 36.3926 211.664 36.2252L210.948 32.0812L213.958 29.1482C214.08 29.0298 214.166 28.8797 214.207 28.715C214.248 28.5503 214.242 28.3774 214.19 28.2158C214.138 28.0542 214.042 27.9103 213.913 27.8003C213.783 27.6903 213.626 27.6186 213.458 27.5932L209.298 26.9862L207.434 23.2162C207.359 23.0638 207.242 22.9355 207.098 22.8458C206.953 22.756 206.787 22.7085 206.616 22.7085C206.446 22.7085 206.28 22.756 206.135 22.8458C205.991 22.9355 205.874 23.0638 205.799 23.2162Z" fill="#06C167"/>
</svg>
