<svg width="21" height="20" viewBox="0 0 21 20" fill="none" xmlns="http://www.w3.org/2000/svg">
<path d="M6.54799 5.5501C7.00197 5.09536 7.31097 4.51626 7.43593 3.88597C7.5609 3.25568 7.49622 2.60249 7.25008 2.00894C7.00394 1.4154 6.58737 0.908133 6.05303 0.551256C5.51869 0.19438 4.89055 0.00390625 4.24799 0.00390625C3.60543 0.00390625 2.97729 0.19438 2.44294 0.551256C1.9086 0.908133 1.49204 1.4154 1.24589 2.00894C0.999751 2.60249 0.935076 3.25568 1.06004 3.88597C1.18501 4.51626 1.49401 5.09536 1.94799 5.5501C2.24985 5.85246 2.60836 6.09233 3.00302 6.256C3.39768 6.41966 3.82074 6.50391 4.24799 6.50391C4.67524 6.50391 5.09829 6.41966 5.49295 6.256C5.88761 6.09233 6.24613 5.85246 6.54799 5.5501ZM19.548 13.9501C19.0933 13.4961 18.5141 13.1871 17.8839 13.0622C17.2536 12.9372 16.6004 13.0019 16.0068 13.248C15.4133 13.4942 14.906 13.9107 14.5491 14.4451C14.1923 14.9794 14.0018 15.6075 14.0018 16.2501C14.0018 16.8927 14.1923 17.5208 14.5491 18.0551C14.906 18.5895 15.4133 19.006 16.0068 19.2522C16.6004 19.4983 17.2536 19.563 17.8839 19.438C18.5141 19.3131 19.0933 19.0041 19.548 18.5501C19.8503 18.2482 20.0902 17.8897 20.2539 17.4951C20.4176 17.1004 20.5018 16.6773 20.5018 16.2501C20.5018 15.8229 20.4176 15.3998 20.2539 15.0051C20.0902 14.6105 19.8503 14.252 19.548 13.9501ZM19.448 2.1981L18.3 1.0501C18.1491 0.898799 17.9699 0.778756 17.7725 0.696848C17.5752 0.614941 17.3636 0.572779 17.15 0.572779C16.9363 0.572779 16.7248 0.614941 16.5274 0.696848C16.3301 0.778756 16.1509 0.898799 16 1.0501L2.05099 15.0031C1.89969 15.154 1.77964 15.3332 1.69774 15.5305C1.61583 15.7279 1.57367 15.9394 1.57367 16.1531C1.57367 16.3668 1.61583 16.5783 1.69774 16.7757C1.77964 16.973 1.89969 17.1522 2.05099 17.3031L3.19999 18.4501C3.35085 18.6014 3.53009 18.7214 3.72743 18.8034C3.92476 18.8853 4.13633 18.9274 4.34999 18.9274C4.56365 18.9274 4.77521 18.8853 4.97255 18.8034C5.16989 18.7214 5.34912 18.6014 5.49999 18.4501L19.449 4.4971C19.6003 4.34624 19.7203 4.167 19.8022 3.96966C19.8841 3.77232 19.9263 3.56076 19.9263 3.3471C19.9263 3.13344 19.8841 2.92188 19.8022 2.72454C19.7203 2.5272 19.6003 2.34796 19.449 2.1971L19.448 2.1981Z" fill="#06C167"/>
</svg>
