<svg width="70" height="70" viewBox="0 0 70 70" fill="none" xmlns="http://www.w3.org/2000/svg">
<path d="M60 0H10C4.47715 0 0 4.47715 0 10V60C0 65.5229 4.47715 70 10 70H60C65.5229 70 70 65.5229 70 60V10C70 4.47715 65.5229 0 60 0Z" fill="#F3FCF7"/>
<path d="M30.548 30.5501C31.002 30.0954 31.311 29.5163 31.4359 28.886C31.5609 28.2557 31.4962 27.6025 31.2501 27.0089C31.004 26.4154 30.5874 25.9081 30.053 25.5513C29.5187 25.1944 28.8906 25.0039 28.248 25.0039C27.6054 25.0039 26.9773 25.1944 26.443 25.5513C25.9086 25.9081 25.4921 26.4154 25.2459 27.0089C24.9998 27.6025 24.9351 28.2557 25.0601 28.886C25.185 29.5163 25.494 30.0954 25.948 30.5501C26.2499 30.8525 26.6084 31.0923 27.003 31.256C27.3977 31.4197 27.8208 31.5039 28.248 31.5039C28.6753 31.5039 29.0983 31.4197 29.493 31.256C29.8876 31.0923 30.2461 30.8525 30.548 30.5501ZM43.548 38.9501C43.0933 38.4961 42.5142 38.1871 41.8839 38.0622C41.2536 37.9372 40.6004 38.0019 40.0068 38.248C39.4133 38.4942 38.906 38.9107 38.5492 39.4451C38.1923 39.9794 38.0018 40.6075 38.0018 41.2501C38.0018 41.8927 38.1923 42.5208 38.5492 43.0551C38.906 43.5895 39.4133 44.006 40.0068 44.2522C40.6004 44.4983 41.2536 44.563 41.8839 44.438C42.5142 44.3131 43.0933 44.0041 43.548 43.5501C43.8504 43.2482 44.0902 42.8897 44.2539 42.4951C44.4176 42.1004 44.5018 41.6773 44.5018 41.2501C44.5018 40.8229 44.4176 40.3998 44.2539 40.0051C44.0902 39.6105 43.8504 39.252 43.548 38.9501ZM43.448 27.1981L42.3 26.0501C42.1491 25.8988 41.9699 25.7788 41.7726 25.6968C41.5752 25.6149 41.3637 25.5728 41.15 25.5728C40.9363 25.5728 40.7248 25.6149 40.5274 25.6968C40.3301 25.7788 40.1509 25.8988 40 26.0501L26.051 40.0031C25.8997 40.154 25.7797 40.3332 25.6978 40.5305C25.6158 40.7279 25.5737 40.9394 25.5737 41.1531C25.5737 41.3668 25.6158 41.5783 25.6978 41.7757C25.7797 41.973 25.8997 42.1522 26.051 42.3031L27.2 43.4501C27.3509 43.6014 27.5301 43.7214 27.7274 43.8034C27.9248 43.8853 28.1363 43.9274 28.35 43.9274C28.5637 43.9274 28.7752 43.8853 28.9726 43.8034C29.1699 43.7214 29.3491 43.6014 29.5 43.4501L43.449 29.4971C43.6003 29.3462 43.7203 29.167 43.8023 28.9697C43.8842 28.7723 43.9263 28.5608 43.9263 28.3471C43.9263 28.1334 43.8842 27.9219 43.8023 27.7245C43.7203 27.5272 43.6003 27.348 43.449 27.1971L43.448 27.1981Z" fill="#06C167"/>
</svg>
